<svg xmlns="http://www.w3.org/2000/svg" xmlns:xlink="http://www.w3.org/1999/xlink" viewBox="0 0 1009.48 423.62"><defs><style>.a{fill:url(#a);}.b{fill:#fff;}.c{opacity:0.42;}.d{fill:#eef4f5;}.e{opacity:0.1;}.f{fill:#217ff2;}.g{fill:url(#b);}.h{fill:url(#c);}</style><linearGradient id="a" x1="203.89" y1="124" x2="531.72" y2="124" gradientUnits="userSpaceOnUse"><stop offset="0" stop-color="#00dfff"/><stop offset="1" stop-color="#217ff2" stop-opacity="0"/></linearGradient><linearGradient id="b" x1="0" y1="40" x2="393.37" y2="40" xlink:href="#a"/><linearGradient id="c" x1="397.37" y1="208" x2="899.77" y2="208" xlink:href="#a"/></defs><title>approach-waterfall</title><rect class="a" x="203.89" y="84" width="327.83" height="80"/><path class="b" d="M231,126.09c-.24,0-.5,0-.75,0h-3v3.54H226v-11.2h4.26c2.8,0,4.42,1.38,4.42,3.76a3.51,3.51,0,0,1-2.51,3.63l2.63,3.81h-1.46Zm-.75-1.2c2,0,3.18-.9,3.18-2.64s-1.15-2.56-3.18-2.56h-3v5.2Z"/><path class="b" d="M238.83,119.69v3.68h5.65v1.23h-5.65v3.84h6.53v1.22h-7.81v-11.2h7.6v1.23Z"/><path class="b" d="M254.84,119.45l-.54,1.2a5.79,5.79,0,0,0-3.09-.94c-1.44,0-2.38.54-2.38,1.49,0,2.88,6.31,1.38,6.29,5.44,0,1.87-1.65,3.07-4,3.07a6.39,6.39,0,0,1-4.29-1.71l.58-1.15a5.57,5.57,0,0,0,3.73,1.58c1.62,0,2.63-.66,2.63-1.73,0-2.95-6.29-1.38-6.29-5.39,0-1.76,1.55-2.9,3.87-2.9A6.63,6.63,0,0,1,254.84,119.45Z"/><path class="b" d="M259,119.69v3.68h5.65v1.23H259v3.84h6.53v1.22h-7.81v-11.2h7.6v1.23Z"/><path class="b" d="M269.13,126.83l-1.25,2.83h-1.36l5-11.2h1.33l5,11.2h-1.39l-1.25-2.83Zm3-6.92-2.5,5.68h5Z"/><path class="b" d="M284.65,126.09c-.24,0-.5,0-.75,0h-3v3.54h-1.28v-11.2h4.26c2.8,0,4.42,1.38,4.42,3.76a3.51,3.51,0,0,1-2.51,3.63l2.63,3.81H287Zm-.75-1.2c2,0,3.18-.9,3.18-2.64s-1.15-2.56-3.18-2.56h-3v5.2Z"/><path class="b" d="M300.09,120.06l-.77,1a4.71,4.71,0,0,0-3.31-1.41,4.42,4.42,0,1,0,0,8.84,4.89,4.89,0,0,0,3.31-1.34l.78.88a6.18,6.18,0,0,1-4.16,1.73,5.65,5.65,0,1,1,0-11.3A6.06,6.06,0,0,1,300.09,120.06Z"/><path class="b" d="M310.44,129.66v-4.93h-6.75v4.93h-1.28v-11.2h1.28v5.06h6.75v-5.06h1.28v11.2Z"/><g class="c"><rect class="d" y="396.41" width="200" height="1"/><rect class="d" x="271.49" y="396.41" width="462.64" height="1"/><rect class="d" x="815.5" y="396.41" width="192.94" height="1"/><rect class="d" y="387.41" width="1.05" height="10"/><rect class="d" x="199.48" y="387.41" width="1.05" height="10"/><rect class="d" x="270.97" y="387.41" width="1.05" height="10"/><rect class="d" x="733.61" y="387.41" width="1.05" height="10"/><rect class="d" x="814.97" y="387.41" width="1.05" height="10"/><rect class="d" x="1008.44" y="387.41" width="1.05" height="10"/><path class="d" d="M65.49,423.46V412.1H70.2a3.54,3.54,0,0,1,3.36,3.57,3.43,3.43,0,0,1-3.27,3.6h-3.7v4.19Zm1.1-5.19h3.63a2.39,2.39,0,0,0,2.21-2.61,2.47,2.47,0,0,0-2.3-2.58H66.59Z"/><path class="d" d="M79.32,416.08a3.2,3.2,0,0,0-3.07,2.19v5.19H75.15v-8.34h1v2a3.27,3.27,0,0,1,2.66-2,3.91,3.91,0,0,1,.48,0Z"/><path class="d" d="M79.84,419.32A4.15,4.15,0,1,1,84,423.62,4.17,4.17,0,0,1,79.84,419.32ZM84,422.66a3.38,3.38,0,1,0-3-3.33A3.17,3.17,0,0,0,84,422.66Z"/><path class="d" d="M90.88,421.85v1.62h-1V411.78H91v5.09A3.79,3.79,0,0,1,94.18,415c2.32,0,3.78,2.16,3.78,4.34a4.14,4.14,0,0,1-4,4.31A3.68,3.68,0,0,1,90.88,421.85Zm6-2.53a3.19,3.19,0,0,0-3-3.38A3.34,3.34,0,0,0,91,418v2.59a2.93,2.93,0,0,0,2.74,2A3.24,3.24,0,0,0,96.84,419.32Z"/><path class="d" d="M99.81,411.78h1.09v9.8a.9.9,0,0,0,1,1,2.51,2.51,0,0,0,.86-.18l.19.88a4.82,4.82,0,0,1-1.5.29,1.5,1.5,0,0,1-1.62-1.62Z"/><path class="d" d="M103.44,419.27a4.16,4.16,0,1,1,8.31,0,2.64,2.64,0,0,1,0,.43h-7.12a3.19,3.19,0,0,0,3.07,3.11,2.79,2.79,0,0,0,2.56-1.5l.94.26a3.8,3.8,0,0,1-3.54,2.08A4.22,4.22,0,0,1,103.44,419.27Zm7.27-.42a3.13,3.13,0,0,0-3.09-3,3.09,3.09,0,0,0-3.06,3Z"/><path class="d" d="M125.78,423.46h-1.09V418.8c0-1.94-.61-2.83-1.84-2.83a3,3,0,0,0-2.74,2.4v5.09H119V418.8c0-2-.59-2.83-1.82-2.83a3,3,0,0,0-2.74,2.38v5.11h-1.09v-8.34h1V417a3.59,3.59,0,0,1,3.19-2,2.36,2.36,0,0,1,2.46,2.14,3.6,3.6,0,0,1,3.23-2.14c1.86,0,2.53,1.42,2.53,3.6Z"/><path class="d" d="M473.26,423.46V412.1H478a3.54,3.54,0,0,1,3.38,3.57,3.36,3.36,0,0,1-2.54,3.41l2.8,4.39h-1.26l-2.69-4.19h-3.36v4.19Zm1.1-5.19h3.73a2.41,2.41,0,0,0,2.21-2.61,2.5,2.5,0,0,0-2.3-2.58h-3.63Z"/><path class="d" d="M483,419.27a4.16,4.16,0,1,1,8.31,0,2.64,2.64,0,0,1,0,.43h-7.12a3.19,3.19,0,0,0,3.07,3.11,2.79,2.79,0,0,0,2.56-1.5l.94.26a3.8,3.8,0,0,1-3.54,2.08A4.22,4.22,0,0,1,483,419.27Zm7.27-.42a3.13,3.13,0,0,0-3.09-3,3.09,3.09,0,0,0-3.06,3Z"/><path class="d" d="M492.24,422.37l.5-.74a4.54,4.54,0,0,0,3,1.15c1.33,0,2.21-.58,2.21-1.57s-.83-1.18-2.51-1.58c-1.94-.48-2.8-.82-2.8-2.13,0-1.68,1.41-2.53,3.12-2.53a4.17,4.17,0,0,1,3,1.14l-.53.64a3.52,3.52,0,0,0-2.51-1c-1.14,0-2,.46-2,1.55,0,.88.59,1.07,2.08,1.42,2.14.51,3.25.93,3.25,2.35s-1.28,2.5-3.25,2.5A5.28,5.28,0,0,1,492.24,422.37Z"/><path class="d" d="M500.19,419.32a4.15,4.15,0,1,1,4.15,4.31A4.17,4.17,0,0,1,500.19,419.32Zm4.13,3.34a3.38,3.38,0,1,0-3-3.33A3.17,3.17,0,0,0,504.32,422.66Z"/><path class="d" d="M510.3,411.78h1.09v9.8a.9.9,0,0,0,1,1,2.51,2.51,0,0,0,.86-.18l.19.88a4.82,4.82,0,0,1-1.5.29,1.5,1.5,0,0,1-1.62-1.62Z"/><path class="d" d="M516.72,423.46l-3.39-8.34h1.14l2.87,7.33,2.88-7.33h1.06l-3.39,8.34Z"/><path class="d" d="M522.16,419.27a4.16,4.16,0,1,1,8.31,0,2.64,2.64,0,0,1,0,.43h-7.12a3.19,3.19,0,0,0,3.07,3.11,2.79,2.79,0,0,0,2.56-1.5l.94.26a3.8,3.8,0,0,1-3.54,2.08A4.22,4.22,0,0,1,522.16,419.27Zm7.27-.42a3.13,3.13,0,0,0-3.09-3,3.09,3.09,0,0,0-3.06,3Z"/><path class="d" d="M902.35,421.81a4.82,4.82,0,0,1-3.63,1.73c-3.06,0-5.31-2.9-5.31-5.78a5.5,5.5,0,0,1,5.25-5.75A4.49,4.49,0,0,1,903,414.5l-.86.58a3.7,3.7,0,0,0-3.49-2c-2.53,0-4.11,2.34-4.11,4.75a4.29,4.29,0,0,0,7.83,2.87v-1.9h-2.51v-.86h3.47v5.59h-1Z"/><path class="d" d="M909.56,416.08a3.2,3.2,0,0,0-3.07,2.19v5.19H905.4v-8.34h1v2a3.27,3.27,0,0,1,2.66-2,3.91,3.91,0,0,1,.48,0Z"/><path class="d" d="M910.09,419.32a4.15,4.15,0,1,1,4.15,4.31A4.17,4.17,0,0,1,910.09,419.32Zm4.13,3.34a3.38,3.38,0,1,0-3-3.33A3.17,3.17,0,0,0,914.22,422.66Z"/><path class="d" d="M930.39,415.12h1.06l-3.57,8.34H927l-1.78-4.26-1.78,4.26h-.91l-3.57-8.34h1l3,7.22,1.58-3.81-1.42-3.39h.93l1.09,2.72,1.07-2.72h.93l-1.41,3.39,1.58,3.81Z"/></g><g class="e"><rect class="f" y="84" width="199.48" height="80"/></g><g class="e"><rect class="f" y="168" width="393.37" height="80"/></g><g class="e"><rect class="f" y="252" width="736" height="80"/></g><rect class="g" width="393.37" height="80"/><path class="b" d="M22.09,45.66V34.46h1.28v11.2Z"/><path class="b" d="M31.29,34.46a5.61,5.61,0,1,1,0,11.2H26.76V34.46ZM28,44.44h3.27a4.38,4.38,0,1,0,0-8.75H28Z"/><path class="b" d="M40.67,35.69v3.68h5.65V40.6H40.67v3.84H47.2v1.22H39.39V34.46H47v1.23Z"/><path class="b" d="M57.8,45.66l-6.72-9v9H49.8V34.46h1.33l6.72,9v-9h1.26v11.2Z"/><path class="b" d="M65.93,35.69v10H64.65v-10H61V34.46h8.6v1.23Z"/><path class="b" d="M71.45,45.66V34.46h1.28v11.2Z"/><path class="b" d="M77.4,35.69v3.94h5.23v1.23H77.4v4.8H76.12V34.46h7.12v1.23Z"/><path class="b" d="M89.1,45.66H87.83V41.87L83.5,34.46h1.33l3.63,5.84L92,34.46h1.31L89.1,41.82Z"/><rect class="h" x="397.37" y="168" width="502.4" height="80"/><path class="b" d="M424.18,202.46c2.26,0,3.62,1,3.62,2.8a2.44,2.44,0,0,1-2.06,2.53,2.74,2.74,0,0,1,2.56,2.83c0,1.9-1.5,3-4,3h-4.8v-11.2Zm-3.44,4.83h3.38c1.5,0,2.39-.66,2.39-1.83s-.88-1.78-2.39-1.78h-3.38Zm0,5.15h3.38c1.82,0,2.88-.72,2.88-2s-1.06-1.94-2.88-1.94h-3.38Z"/><path class="b" d="M440.07,209.05a4.31,4.31,0,0,1-4.69,4.67c-2.95,0-4.72-1.76-4.72-4.67v-6.59h1.28v6.59a3.43,3.43,0,1,0,6.85,0v-6.59h1.28Z"/><path class="b" d="M443.2,213.66v-11.2h1.28v11.2Z"/><path class="b" d="M454.07,212.44v1.22h-6.19v-11.2h1.28v10Z"/><path class="b" d="M460.68,202.46a5.61,5.61,0,1,1,0,11.2h-4.48v-11.2Zm-3.25,10h3.27a4.38,4.38,0,1,0,0-8.75h-3.22Z"/></svg>