<svg xmlns="http://www.w3.org/2000/svg" xmlns:xlink="http://www.w3.org/1999/xlink" viewBox="0 0 985.52 431.01"><defs><style>.a{opacity:0.42;}.b{fill:#eef4f5;}.c{fill:url(#a);}.d{fill:url(#b);}.e{fill:url(#c);}.f{fill:#217ff2;}.g{fill:#00dfff;}.h{fill:url(#d);}.i{fill:#fff;}</style><linearGradient id="a" x1="491.48" y1="22.94" x2="491.48" y2="354.26" gradientUnits="userSpaceOnUse"><stop offset="0" stop-color="#217ff2"/><stop offset="1" stop-color="#00dfff"/></linearGradient><linearGradient id="b" x1="165.66" y1="354.26" x2="165.66" y2="22.94" xlink:href="#a"/><linearGradient id="c" x1="817.66" y1="354.26" x2="817.66" y2="22.94" xlink:href="#a"/><linearGradient id="d" x1="469.79" y1="210.72" x2="402.16" y2="327.85" xlink:href="#a"/></defs><title>approach-infinity</title><g class="a"><rect class="b" x="0.83" y="403.8" width="305.5" height="1"/><rect class="b" x="0.83" y="394.8" width="1.05" height="10"/><rect class="b" x="305.81" y="394.8" width="1.05" height="10"/><path class="b" d="M123.61,433.2V421.83h4.71a3.54,3.54,0,0,1,3.36,3.57,3.43,3.43,0,0,1-3.27,3.6h-3.7v4.19Zm1.1-5.19h3.63a2.39,2.39,0,0,0,2.21-2.61,2.47,2.47,0,0,0-2.3-2.58h-3.54Z" transform="translate(0 -2.35)"/><path class="b" d="M137.44,425.82a3.2,3.2,0,0,0-3.07,2.19v5.19h-1.09v-8.34h1v2a3.27,3.27,0,0,1,2.66-2,3.91,3.91,0,0,1,.48,0Z" transform="translate(0 -2.35)"/><path class="b" d="M138,429a4.15,4.15,0,1,1,4.15,4.31A4.17,4.17,0,0,1,138,429Zm4.13,3.34a3.38,3.38,0,1,0-3-3.33A3.17,3.17,0,0,0,142.1,432.39Z" transform="translate(0 -2.35)"/><path class="b" d="M149,431.58v1.62h-1V421.51h1.09v5.09a3.79,3.79,0,0,1,3.19-1.89c2.32,0,3.78,2.16,3.78,4.34a4.14,4.14,0,0,1-4,4.31A3.68,3.68,0,0,1,149,431.58Zm6-2.53a3.19,3.19,0,0,0-3-3.38,3.34,3.34,0,0,0-2.88,2.08v2.59a2.93,2.93,0,0,0,2.74,2A3.24,3.24,0,0,0,155,429Z" transform="translate(0 -2.35)"/><path class="b" d="M157.93,421.51H159v9.8a.9.9,0,0,0,1,1,2.51,2.51,0,0,0,.86-.18l.19.88a4.82,4.82,0,0,1-1.5.29,1.5,1.5,0,0,1-1.62-1.62Z" transform="translate(0 -2.35)"/><path class="b" d="M161.57,429a4.16,4.16,0,1,1,8.31,0,2.64,2.64,0,0,1,0,.43h-7.12a3.19,3.19,0,0,0,3.07,3.11,2.79,2.79,0,0,0,2.56-1.5l.94.26a3.8,3.8,0,0,1-3.54,2.08A4.22,4.22,0,0,1,161.57,429Zm7.27-.42a3.13,3.13,0,0,0-3.09-3,3.09,3.09,0,0,0-3.06,3Z" transform="translate(0 -2.35)"/><path class="b" d="M183.91,433.2h-1.09v-4.66c0-1.94-.61-2.83-1.84-2.83a3,3,0,0,0-2.74,2.4v5.09h-1.09v-4.66c0-2-.59-2.83-1.82-2.83a3,3,0,0,0-2.74,2.38v5.11H171.5v-8.34h1v1.89a3.59,3.59,0,0,1,3.19-2,2.36,2.36,0,0,1,2.46,2.14,3.6,3.6,0,0,1,3.23-2.14c1.86,0,2.53,1.42,2.53,3.6Z" transform="translate(0 -2.35)"/><rect class="b" x="354.16" y="403.8" width="277.19" height="1"/><rect class="b" x="354.16" y="394.8" width="1.05" height="10"/><rect class="b" x="631.36" y="394.8" width="1.05" height="10"/><path class="b" d="M463.8,433.2V421.83h4.79A3.54,3.54,0,0,1,472,425.4a3.36,3.36,0,0,1-2.54,3.41l2.8,4.39H471L468.27,429h-3.36v4.19Zm1.1-5.19h3.73a2.41,2.41,0,0,0,2.21-2.61,2.5,2.5,0,0,0-2.3-2.58h-3.63Z" transform="translate(0 -2.35)"/><path class="b" d="M473.55,429a4.16,4.16,0,1,1,8.31,0,2.64,2.64,0,0,1,0,.43H474.7a3.19,3.19,0,0,0,3.07,3.11,2.79,2.79,0,0,0,2.56-1.5l.94.26a3.8,3.8,0,0,1-3.54,2.08A4.22,4.22,0,0,1,473.55,429Zm7.27-.42a3.13,3.13,0,0,0-3.09-3,3.09,3.09,0,0,0-3.06,3Z" transform="translate(0 -2.35)"/><path class="b" d="M482.78,432.11l.5-.74a4.54,4.54,0,0,0,3,1.15c1.33,0,2.21-.58,2.21-1.57s-.83-1.18-2.51-1.58c-1.94-.48-2.8-.82-2.8-2.13,0-1.68,1.41-2.53,3.12-2.53a4.17,4.17,0,0,1,3,1.14l-.53.64a3.52,3.52,0,0,0-2.51-1c-1.14,0-2,.46-2,1.55,0,.88.59,1.07,2.08,1.42,2.14.51,3.25.93,3.25,2.35s-1.28,2.5-3.25,2.5A5.28,5.28,0,0,1,482.78,432.11Z" transform="translate(0 -2.35)"/><path class="b" d="M490.73,429a4.15,4.15,0,1,1,4.15,4.31A4.17,4.17,0,0,1,490.73,429Zm4.13,3.34a3.38,3.38,0,1,0-3-3.33A3.17,3.17,0,0,0,494.86,432.39Z" transform="translate(0 -2.35)"/><path class="b" d="M500.84,421.51h1.09v9.8a.9.9,0,0,0,1,1,2.51,2.51,0,0,0,.86-.18l.19.88a4.82,4.82,0,0,1-1.5.29,1.5,1.5,0,0,1-1.62-1.62Z" transform="translate(0 -2.35)"/><path class="b" d="M507.26,433.2l-3.39-8.34H505l2.87,7.33,2.88-7.33h1.06l-3.39,8.34Z" transform="translate(0 -2.35)"/><path class="b" d="M512.7,429a4.16,4.16,0,1,1,8.31,0,2.64,2.64,0,0,1,0,.43h-7.12a3.19,3.19,0,0,0,3.07,3.11,2.79,2.79,0,0,0,2.56-1.5l.94.26a3.8,3.8,0,0,1-3.54,2.08A4.22,4.22,0,0,1,512.7,429Zm7.27-.42a3.13,3.13,0,0,0-3.09-3,3.09,3.09,0,0,0-3.06,3Z" transform="translate(0 -2.35)"/><rect class="b" x="679.5" y="403.8" width="305.5" height="1"/><rect class="b" x="679.5" y="394.8" width="1.05" height="10"/><rect class="b" x="984.48" y="394.8" width="1.05" height="10"/><path class="b" d="M822.63,431.55a4.82,4.82,0,0,1-3.63,1.73c-3.06,0-5.31-2.9-5.31-5.78a5.5,5.5,0,0,1,5.25-5.75,4.49,4.49,0,0,1,4.34,2.48l-.86.58a3.7,3.7,0,0,0-3.49-2c-2.53,0-4.11,2.34-4.11,4.75a4.29,4.29,0,0,0,7.83,2.87v-1.9h-2.51v-.86h3.47v5.59h-1Z" transform="translate(0 -2.35)"/><path class="b" d="M829.84,425.82a3.2,3.2,0,0,0-3.07,2.19v5.19h-1.09v-8.34h1v2a3.27,3.27,0,0,1,2.66-2,3.91,3.91,0,0,1,.48,0Z" transform="translate(0 -2.35)"/><path class="b" d="M830.37,429a4.15,4.15,0,1,1,4.15,4.31A4.17,4.17,0,0,1,830.37,429Zm4.13,3.34a3.38,3.38,0,1,0-3-3.33A3.17,3.17,0,0,0,834.5,432.39Z" transform="translate(0 -2.35)"/><path class="b" d="M850.68,424.86h1.06l-3.57,8.34h-.91l-1.78-4.26-1.78,4.26h-.91l-3.57-8.34h1l3,7.22,1.58-3.81-1.42-3.39h.93l1.09,2.72,1.07-2.72h.93l-1.41,3.39,1.58,3.81Z" transform="translate(0 -2.35)"/></g><path class="c" d="M491.48,354.26c-91.34,0-165.66-74.31-165.66-165.66S400.13,22.94,491.48,22.94,657.14,97.26,657.14,188.6,582.82,354.26,491.48,354.26Zm0-325.32c-88,0-159.66,71.62-159.66,159.66s71.62,159.66,159.66,159.66S651.14,276.64,651.14,188.6,579.52,28.94,491.48,28.94Z" transform="translate(0 -2.35)"/><path class="d" d="M165.66,354.26C74.31,354.26,0,279.94,0,188.6S74.31,22.94,165.66,22.94,331.32,97.26,331.32,188.6,257,354.26,165.66,354.26Zm0-325.32C77.62,28.94,6,100.56,6,188.6S77.62,348.26,165.66,348.26,325.32,276.64,325.32,188.6,253.69,28.94,165.66,28.94Z" transform="translate(0 -2.35)"/><path class="e" d="M817.66,354.26C726.31,354.26,652,279.94,652,188.6S726.31,22.94,817.66,22.94,983.32,97.26,983.32,188.6,909,354.26,817.66,354.26Zm0-325.32c-88,0-159.66,71.62-159.66,159.66s71.62,159.66,159.66,159.66S977.32,276.64,977.32,188.6,905.69,28.94,817.66,28.94Z" transform="translate(0 -2.35)"/><circle class="f" cx="329.14" cy="186.25" r="21.34"/><path class="g" d="M329.14,212.44A23.84,23.84,0,1,1,353,188.6,23.87,23.87,0,0,1,329.14,212.44Zm0-42.68A18.84,18.84,0,1,0,348,188.6,18.86,18.86,0,0,0,329.14,169.76Z" transform="translate(0 -2.35)"/><circle class="f" cx="654.3" cy="186.25" r="21.34"/><path class="g" d="M654.3,212.44a23.84,23.84,0,1,1,23.84-23.84A23.87,23.87,0,0,1,654.3,212.44Zm0-42.68a18.84,18.84,0,1,0,18.84,18.84A18.86,18.86,0,0,0,654.3,169.76Z" transform="translate(0 -2.35)"/><path class="h" d="M436,336.92a67.64,67.64,0,1,1,67.64-67.64A67.72,67.72,0,0,1,436,336.92Zm0-129.28a61.64,61.64,0,1,0,61.64,61.64A61.71,61.71,0,0,0,436,207.64Z" transform="translate(0 -2.35)"/><path class="i" d="M413.08,265.39l-.54,1.2a5.79,5.79,0,0,0-3.09-.94c-1.44,0-2.38.54-2.38,1.49,0,2.88,6.31,1.38,6.29,5.44,0,1.87-1.65,3.07-4,3.07a6.39,6.39,0,0,1-4.29-1.71l.58-1.15a5.57,5.57,0,0,0,3.73,1.58c1.62,0,2.63-.66,2.63-1.73,0-2.95-6.29-1.38-6.29-5.39,0-1.76,1.55-2.9,3.87-2.9A6.63,6.63,0,0,1,413.08,265.39Z" transform="translate(0 -2.35)"/><path class="i" d="M420.18,264.4c2.77,0,4.37,1.38,4.37,3.76s-1.6,3.91-4.37,3.91h-2.93v3.54H416V264.4Zm-2.93,6.43h2.88c2,0,3.19-.9,3.19-2.64s-1.17-2.56-3.19-2.56h-2.88Z" transform="translate(0 -2.35)"/><path class="i" d="M431.69,272c-.24,0-.5,0-.75,0h-3v3.54h-1.28V264.4h4.26c2.8,0,4.42,1.38,4.42,3.76a3.51,3.51,0,0,1-2.51,3.63l2.63,3.81H434Zm-.75-1.2c2,0,3.19-.9,3.19-2.64s-1.15-2.56-3.19-2.56h-3v5.2Z" transform="translate(0 -2.35)"/><path class="i" d="M438.24,275.6V264.4h1.28v11.2Z" transform="translate(0 -2.35)"/><path class="i" d="M450.92,275.6l-6.72-9v9h-1.28V264.4h1.33l6.72,9v-9h1.26v11.2Z" transform="translate(0 -2.35)"/><path class="i" d="M459,265.63v10h-1.28v-10h-3.65V264.4h8.6v1.23Z" transform="translate(0 -2.35)"/><path class="i" d="M200.51,182.4c2.77,0,4.37,1.38,4.37,3.76s-1.6,3.91-4.37,3.91h-2.93v3.54H196.3V182.4Zm-2.93,6.43h2.88c2,0,3.19-.9,3.19-2.64s-1.17-2.56-3.19-2.56h-2.88Z" transform="translate(0 -2.35)"/><path class="i" d="M212,190c-.24,0-.5,0-.75,0h-3v3.54H207V182.4h4.26c2.8,0,4.42,1.38,4.42,3.76a3.51,3.51,0,0,1-2.51,3.63l2.63,3.81h-1.46Zm-.75-1.2c2,0,3.19-.9,3.19-2.64s-1.15-2.56-3.19-2.56h-3v5.2Z" transform="translate(0 -2.35)"/><path class="i" d="M229.25,188a5.87,5.87,0,1,1-5.86-5.63A5.73,5.73,0,0,1,229.25,188Zm-10.44,0a4.56,4.56,0,1,0,4.58-4.42A4.52,4.52,0,0,0,218.82,188Z" transform="translate(0 -2.35)"/><path class="i" d="M234.85,183.63v10h-1.28v-10h-3.65V182.4h8.6v1.23Z" transform="translate(0 -2.35)"/><path class="i" d="M250.32,188a5.87,5.87,0,1,1-5.86-5.63A5.73,5.73,0,0,1,250.32,188Zm-10.44,0a4.56,4.56,0,1,0,4.58-4.42A4.52,4.52,0,0,0,239.89,188Z" transform="translate(0 -2.35)"/><path class="i" d="M255.92,183.63v10h-1.28v-10H251V182.4h8.6v1.23Z" transform="translate(0 -2.35)"/><path class="i" d="M265.41,193.6h-1.26v-3.79l-4.34-7.41h1.33l3.63,5.84,3.59-5.84h1.31l-4.26,7.36Z" transform="translate(0 -2.35)"/><path class="i" d="M275.65,182.4c2.77,0,4.37,1.38,4.37,3.76s-1.6,3.91-4.37,3.91h-2.93v3.54h-1.28V182.4Zm-2.93,6.43h2.88c2,0,3.19-.9,3.19-2.64s-1.17-2.56-3.19-2.56h-2.88Z" transform="translate(0 -2.35)"/><path class="i" d="M283.42,183.63v3.68h5.65v1.23h-5.65v3.84H290v1.22h-7.81V182.4h7.6v1.23Z" transform="translate(0 -2.35)"/><path class="i" d="M696.81,182.4c2.26,0,3.62,1,3.62,2.8a2.44,2.44,0,0,1-2.06,2.53,2.74,2.74,0,0,1,2.56,2.83c0,1.9-1.5,3-4,3h-4.8V182.4Zm-3.44,4.83h3.38c1.5,0,2.39-.66,2.39-1.83s-.88-1.78-2.39-1.78h-3.38Zm0,5.15h3.38c1.82,0,2.88-.72,2.88-2s-1.06-1.94-2.88-1.94h-3.38Z" transform="translate(0 -2.35)"/><path class="i" d="M712.7,189a4.31,4.31,0,0,1-4.69,4.67c-2.95,0-4.72-1.76-4.72-4.67V182.4h1.28V189a3.43,3.43,0,1,0,6.85,0V182.4h1.28Z" transform="translate(0 -2.35)"/><path class="i" d="M715.83,193.6V182.4h1.28v11.2Z" transform="translate(0 -2.35)"/><path class="i" d="M726.7,192.38v1.22h-6.19V182.4h1.28v10Z" transform="translate(0 -2.35)"/><path class="i" d="M733.31,182.4a5.61,5.61,0,1,1,0,11.2h-4.48V182.4Zm-3.25,10h3.27a4.38,4.38,0,1,0,0-8.75h-3.22Z" transform="translate(0 -2.35)"/><path class="i" d="M142,2.4a5.61,5.61,0,1,1,0,11.2h-4.48V2.4Zm-3.25,10H142a4.38,4.38,0,1,0,0-8.75h-3.22Z" transform="translate(0 -2.35)"/><path class="i" d="M151.33,3.63V7.31H157V8.54h-5.65v3.84h6.53V13.6h-7.81V2.4h7.6V3.63Z" transform="translate(0 -2.35)"/><path class="i" d="M161.75,3.63V7.57H167V8.8h-5.23v4.8h-1.28V2.4h7.12V3.63Z" transform="translate(0 -2.35)"/><path class="i" d="M169.47,13.6V2.4h1.28V13.6Z" transform="translate(0 -2.35)"/><path class="i" d="M182.15,13.6l-6.72-9v9h-1.28V2.4h1.33l6.72,9v-9h1.26V13.6Z" transform="translate(0 -2.35)"/><path class="i" d="M188.15,3.63V7.31h5.65V8.54h-5.65v3.84h6.53V13.6h-7.81V2.4h7.6V3.63Z" transform="translate(0 -2.35)"/><path class="i" d="M130.14,365.4a5.61,5.61,0,1,1,0,11.2h-4.48V365.4Zm-3.25,10h3.27a4.38,4.38,0,1,0,0-8.75h-3.22Z" transform="translate(0 -2.35)"/><path class="i" d="M138.24,376.6V365.4h1.28v11.2Z" transform="translate(0 -2.35)"/><path class="i" d="M149.79,366.39l-.54,1.2a5.79,5.79,0,0,0-3.09-.94c-1.44,0-2.38.54-2.38,1.49,0,2.88,6.31,1.38,6.29,5.44,0,1.87-1.65,3.07-4,3.07a6.39,6.39,0,0,1-4.29-1.71l.58-1.15a5.57,5.57,0,0,0,3.73,1.58c1.62,0,2.63-.66,2.63-1.73,0-2.95-6.29-1.38-6.29-5.39,0-1.76,1.55-2.9,3.87-2.9A6.63,6.63,0,0,1,149.79,366.39Z" transform="translate(0 -2.35)"/><path class="i" d="M161.57,367l-.77,1a4.71,4.71,0,0,0-3.31-1.41,4.42,4.42,0,1,0,0,8.84,4.89,4.89,0,0,0,3.31-1.34l.78.88a6.19,6.19,0,0,1-4.16,1.73,5.65,5.65,0,1,1,0-11.3A6.06,6.06,0,0,1,161.57,367Z" transform="translate(0 -2.35)"/><path class="i" d="M174.29,371a5.87,5.87,0,1,1-5.86-5.63A5.73,5.73,0,0,1,174.29,371Zm-10.44,0a4.56,4.56,0,1,0,4.58-4.42A4.52,4.52,0,0,0,163.85,371Z" transform="translate(0 -2.35)"/><path class="i" d="M179.42,376.6l-4.55-11.2h1.38l3.86,9.72L184,365.4h1.34l-4.58,11.2Z" transform="translate(0 -2.35)"/><path class="i" d="M188.4,366.63v3.68H194v1.23H188.4v3.84h6.53v1.22h-7.81V365.4h7.6v1.23Z" transform="translate(0 -2.35)"/><path class="i" d="M202.54,373c-.24,0-.5,0-.75,0h-3v3.54h-1.28V365.4h4.26c2.8,0,4.42,1.38,4.42,3.76a3.51,3.51,0,0,1-2.51,3.63l2.63,3.81h-1.46Zm-.75-1.2c2,0,3.19-.9,3.19-2.64s-1.15-2.56-3.19-2.56h-3v5.2Z" transform="translate(0 -2.35)"/><path class="i" d="M453.82,3.63V7.31h5.65V8.54h-5.65v3.84h6.53V13.6h-7.81V2.4h7.6V3.63Z" transform="translate(0 -2.35)"/><path class="i" d="M465.9,13.6,461.35,2.4h1.38l3.86,9.72,3.87-9.72h1.34l-4.58,11.2Z" transform="translate(0 -2.35)"/><path class="i" d="M473.83,10.77l-1.25,2.83h-1.36l5-11.2h1.33l5,11.2H481.2l-1.25-2.83Zm3-6.92-2.5,5.68h5Z" transform="translate(0 -2.35)"/><path class="i" d="M490.54,12.38V13.6h-6.19V2.4h1.28v10Z" transform="translate(0 -2.35)"/><path class="i" d="M501.77,9a4.31,4.31,0,0,1-4.69,4.67c-2.95,0-4.72-1.76-4.72-4.67V2.4h1.28V9a3.43,3.43,0,1,0,6.85,0V2.4h1.28Z" transform="translate(0 -2.35)"/><path class="i" d="M505.56,10.77l-1.25,2.83H503l5-11.2h1.33l5,11.2h-1.39l-1.25-2.83Zm3-6.92-2.5,5.68h5Z" transform="translate(0 -2.35)"/><path class="i" d="M518.44,3.63v10h-1.28v-10h-3.65V2.4h8.6V3.63Z" transform="translate(0 -2.35)"/><path class="i" d="M525.24,3.63V7.31h5.65V8.54h-5.65v3.84h6.53V13.6H524V2.4h7.6V3.63Z" transform="translate(0 -2.35)"/><path class="i" d="M477.84,366.63v10h-1.28v-10h-3.65V365.4h8.6v1.23Z" transform="translate(0 -2.35)"/><path class="i" d="M484.64,366.63v3.68h5.65v1.23h-5.65v3.84h6.53v1.22h-7.81V365.4H491v1.23Z" transform="translate(0 -2.35)"/><path class="i" d="M500.66,366.39l-.54,1.2a5.79,5.79,0,0,0-3.09-.94c-1.44,0-2.38.54-2.38,1.49,0,2.88,6.31,1.38,6.29,5.44,0,1.87-1.65,3.07-4,3.07a6.39,6.39,0,0,1-4.29-1.71l.58-1.15a5.57,5.57,0,0,0,3.73,1.58c1.62,0,2.63-.66,2.63-1.73,0-2.95-6.29-1.38-6.29-5.39,0-1.76,1.55-2.9,3.87-2.9A6.63,6.63,0,0,1,500.66,366.39Z" transform="translate(0 -2.35)"/><path class="i" d="M507,366.63v10h-1.28v-10H502V365.4h8.6v1.23Z" transform="translate(0 -2.35)"/><path class="i" d="M789.22,13.6l0-9.24-4.08,8.05h-.77l-4.07-8.05V13.6h-1.22V2.4h1.58l4.1,8.07,4.08-8.07h1.57V13.6Z" transform="translate(0 -2.35)"/><path class="i" d="M795.09,3.63V7.31h5.65V8.54h-5.65v3.84h6.53V13.6h-7.81V2.4h7.6V3.63Z" transform="translate(0 -2.35)"/><path class="i" d="M805.2,10.77,804,13.6h-1.36l5-11.2h1.33l5,11.2h-1.39l-1.25-2.83Zm3-6.92-2.5,5.68h5Z" transform="translate(0 -2.35)"/><path class="i" d="M822.47,3.39l-.54,1.2a5.79,5.79,0,0,0-3.09-.94c-1.44,0-2.38.54-2.38,1.49,0,2.88,6.31,1.38,6.29,5.44,0,1.87-1.65,3.07-4,3.07a6.39,6.39,0,0,1-4.29-1.71l.58-1.15a5.57,5.57,0,0,0,3.73,1.58c1.62,0,2.63-.66,2.63-1.73,0-2.95-6.29-1.38-6.29-5.39,0-1.76,1.55-2.9,3.87-2.9A6.63,6.63,0,0,1,822.47,3.39Z" transform="translate(0 -2.35)"/><path class="i" d="M834.52,9a4.31,4.31,0,0,1-4.69,4.67c-2.95,0-4.72-1.76-4.72-4.67V2.4h1.28V9a3.43,3.43,0,1,0,6.85,0V2.4h1.28Z" transform="translate(0 -2.35)"/><path class="i" d="M842.66,10c-.24,0-.5,0-.75,0h-3V13.6h-1.28V2.4h4.26c2.8,0,4.42,1.38,4.42,3.76a3.51,3.51,0,0,1-2.51,3.63l2.63,3.81H845Zm-.75-1.2c2,0,3.19-.9,3.19-2.64s-1.15-2.56-3.19-2.56h-3v5.2Z" transform="translate(0 -2.35)"/><path class="i" d="M850.5,3.63V7.31h5.65V8.54H850.5v3.84H857V13.6h-7.81V2.4h7.6V3.63Z" transform="translate(0 -2.35)"/><path class="i" d="M782.86,373.77l-1.25,2.83h-1.36l5-11.2h1.33l5,11.2h-1.39L789,373.77Zm3-6.92-2.5,5.68h5Z" transform="translate(0 -2.35)"/><path class="i" d="M801.37,376.6l-6.72-9v9h-1.28V365.4h1.33l6.72,9v-9h1.26v11.2Z" transform="translate(0 -2.35)"/><path class="i" d="M807.07,373.77l-1.25,2.83h-1.36l5-11.2h1.33l5,11.2h-1.39l-1.25-2.83Zm3-6.92-2.5,5.68h5Z" transform="translate(0 -2.35)"/><path class="i" d="M823.77,375.38v1.22h-6.19V365.4h1.28v10Z" transform="translate(0 -2.35)"/><path class="i" d="M829.82,376.6h-1.26v-3.79l-4.34-7.41h1.33l3.63,5.84,3.59-5.84h1.31l-4.26,7.36Z" transform="translate(0 -2.35)"/><path class="i" d="M836.52,375.38H844l0,1.22h-9.17v-1l7.43-8.95h-7.22V365.4H844v1Z" transform="translate(0 -2.35)"/><path class="i" d="M847.69,366.63v3.68h5.65v1.23h-5.65v3.84h6.53v1.22h-7.81V365.4H854v1.23Z" transform="translate(0 -2.35)"/></svg>