<svg xmlns="http://www.w3.org/2000/svg" xmlns:xlink="http://www.w3.org/1999/xlink" viewBox="0 0 959.26 413.41"><defs><style>.a{opacity:0.42;}.b{fill:#eef4f5;}.c{fill:#00dfff;}.d{fill:url(#a);}.e{fill:url(#b);}.f{fill:url(#c);}.g{fill:url(#d);}.h{fill:#fff;}.i{fill:#217ff2;opacity:0.1;}</style><linearGradient id="a" x1="67.79" y1="233.3" x2="67.79" y2="98.02" gradientUnits="userSpaceOnUse"><stop offset="0" stop-color="#217ff2"/><stop offset="1" stop-color="#00dfff"/></linearGradient><linearGradient id="b" x1="197.07" y1="233.3" x2="197.07" y2="98.02" xlink:href="#a"/><linearGradient id="c" x1="326.5" y1="233.3" x2="326.5" y2="98.02" xlink:href="#a"/><linearGradient id="d" x1="890.52" y1="233.3" x2="890.52" y2="98.02" xlink:href="#a"/></defs><title>approach-agile</title><g class="a"><rect class="b" x="0.15" y="386.2" width="393.95" height="1"/><rect class="b" x="442.07" y="386.2" width="332.4" height="1"/><rect class="b" x="822.88" y="386.2" width="135.85" height="1"/></g><g class="a"><rect class="b" y="377.2" width="1.05" height="10"/><rect class="b" x="393.58" y="377.2" width="1.05" height="10"/><rect class="b" x="442.07" y="377.2" width="1.05" height="10"/><rect class="b" x="773.42" y="377.2" width="1.05" height="10"/><rect class="b" x="822.36" y="377.2" width="1.05" height="10"/><rect class="b" x="958.21" y="377.2" width="1.05" height="10"/></g><g class="a"><path class="b" d="M156.14,413.25V401.89h4.71a3.54,3.54,0,0,1,3.36,3.57,3.43,3.43,0,0,1-3.27,3.6h-3.7v4.19Zm1.1-5.19h3.63a2.39,2.39,0,0,0,2.21-2.61,2.47,2.47,0,0,0-2.3-2.58h-3.54Z"/><path class="b" d="M170,405.87a3.2,3.2,0,0,0-3.07,2.19v5.19H165.8v-8.34h1v2a3.27,3.27,0,0,1,2.66-2,3.91,3.91,0,0,1,.48,0Z"/><path class="b" d="M170.49,409.11a4.15,4.15,0,1,1,4.15,4.31A4.17,4.17,0,0,1,170.49,409.11Zm4.13,3.34a3.38,3.38,0,1,0-3-3.33A3.17,3.17,0,0,0,174.62,412.45Z"/><path class="b" d="M181.53,411.64v1.62h-1V401.57h1.09v5.09a3.79,3.79,0,0,1,3.19-1.89c2.32,0,3.78,2.16,3.78,4.34a4.14,4.14,0,0,1-4,4.31A3.68,3.68,0,0,1,181.53,411.64Zm6-2.53a3.19,3.19,0,0,0-3-3.38,3.34,3.34,0,0,0-2.88,2.08v2.59a2.93,2.93,0,0,0,2.74,2A3.24,3.24,0,0,0,187.48,409.11Z"/><path class="b" d="M190.45,401.57h1.09v9.8a.9.9,0,0,0,1,1,2.51,2.51,0,0,0,.86-.18l.19.88a4.82,4.82,0,0,1-1.5.29,1.5,1.5,0,0,1-1.62-1.62Z"/><path class="b" d="M194.09,409.06a4.16,4.16,0,1,1,8.31,0,2.64,2.64,0,0,1,0,.43h-7.12a3.19,3.19,0,0,0,3.07,3.11,2.79,2.79,0,0,0,2.56-1.5l.94.26a3.8,3.8,0,0,1-3.54,2.08A4.22,4.22,0,0,1,194.09,409.06Zm7.27-.42a3.13,3.13,0,0,0-3.09-3,3.09,3.09,0,0,0-3.06,3Z"/><path class="b" d="M216.43,413.25h-1.09V408.6c0-1.94-.61-2.83-1.84-2.83a3,3,0,0,0-2.74,2.4v5.09h-1.09V408.6c0-2-.59-2.83-1.82-2.83a3,3,0,0,0-2.74,2.38v5.11H204v-8.34h1v1.89a3.59,3.59,0,0,1,3.19-2,2.36,2.36,0,0,1,2.46,2.14,3.6,3.6,0,0,1,3.23-2.14c1.86,0,2.53,1.42,2.53,3.6Z"/></g><g class="a"><path class="b" d="M580.32,413.25V401.89h4.79a3.54,3.54,0,0,1,3.38,3.57,3.36,3.36,0,0,1-2.54,3.41l2.8,4.39h-1.26l-2.69-4.19h-3.36v4.19Zm1.1-5.19h3.73a2.41,2.41,0,0,0,2.21-2.61,2.5,2.5,0,0,0-2.3-2.58h-3.63Z"/><path class="b" d="M590.07,409.06a4.16,4.16,0,1,1,8.31,0,2.59,2.59,0,0,1,0,.43h-7.12a3.19,3.19,0,0,0,3.07,3.11,2.79,2.79,0,0,0,2.56-1.5l.94.26a3.8,3.8,0,0,1-3.54,2.08A4.22,4.22,0,0,1,590.07,409.06Zm7.27-.42a3.13,3.13,0,0,0-3.09-3,3.09,3.09,0,0,0-3.06,3Z"/><path class="b" d="M599.3,412.16l.5-.74a4.54,4.54,0,0,0,3,1.15c1.33,0,2.21-.58,2.21-1.57s-.83-1.18-2.51-1.58c-1.94-.48-2.8-.82-2.8-2.13,0-1.68,1.41-2.53,3.12-2.53a4.16,4.16,0,0,1,3,1.14l-.53.64a3.52,3.52,0,0,0-2.51-1c-1.14,0-2,.46-2,1.55,0,.88.59,1.07,2.08,1.42,2.14.51,3.25.93,3.25,2.35s-1.28,2.5-3.25,2.5A5.28,5.28,0,0,1,599.3,412.16Z"/><path class="b" d="M607.25,409.11a4.15,4.15,0,1,1,4.15,4.31A4.17,4.17,0,0,1,607.25,409.11Zm4.13,3.34a3.38,3.38,0,1,0-3-3.33A3.17,3.17,0,0,0,611.38,412.45Z"/><path class="b" d="M617.36,401.57h1.09v9.8a.9.9,0,0,0,1,1,2.51,2.51,0,0,0,.86-.18l.19.88a4.82,4.82,0,0,1-1.5.29,1.5,1.5,0,0,1-1.62-1.62Z"/><path class="b" d="M623.78,413.25l-3.39-8.34h1.14l2.87,7.33,2.88-7.33h1.06l-3.39,8.34Z"/><path class="b" d="M629.22,409.06a4.16,4.16,0,1,1,8.31,0,2.7,2.7,0,0,1,0,.43h-7.12a3.19,3.19,0,0,0,3.07,3.11,2.8,2.8,0,0,0,2.56-1.5l.94.26a3.8,3.8,0,0,1-3.54,2.08A4.22,4.22,0,0,1,629.22,409.06Zm7.27-.42a3.13,3.13,0,0,0-3.09-3,3.09,3.09,0,0,0-3.06,3Z"/></g><g class="a"><path class="b" d="M884.45,411.6a4.82,4.82,0,0,1-3.63,1.73c-3.06,0-5.31-2.9-5.31-5.78a5.5,5.5,0,0,1,5.25-5.75,4.49,4.49,0,0,1,4.34,2.48l-.86.58a3.7,3.7,0,0,0-3.49-2c-2.53,0-4.11,2.34-4.11,4.75a4.29,4.29,0,0,0,7.83,2.87v-1.9h-2.51v-.86h3.47v5.59h-1Z"/><path class="b" d="M891.66,405.87a3.2,3.2,0,0,0-3.07,2.19v5.19H887.5v-8.34h1v2a3.27,3.27,0,0,1,2.66-2,3.91,3.91,0,0,1,.48,0Z"/><path class="b" d="M892.19,409.11a4.15,4.15,0,1,1,4.15,4.31A4.17,4.17,0,0,1,892.19,409.11Zm4.13,3.34a3.38,3.38,0,1,0-3-3.33A3.17,3.17,0,0,0,896.32,412.45Z"/><path class="b" d="M912.5,404.91h1.06L910,413.25h-.91L907.3,409l-1.78,4.26h-.91L901,404.91h1l3,7.22,1.58-3.81-1.42-3.39h.93l1.09,2.72,1.07-2.72h.93l-1.41,3.39,1.58,3.81Z"/></g><path class="c" d="M608.44,331.32c-91.34,0-165.66-74.31-165.66-165.66S517.09,0,608.44,0,774.09,74.31,774.09,165.66,699.78,331.32,608.44,331.32ZM608.44,6c-88,0-159.66,71.62-159.66,159.66S520.4,325.32,608.44,325.32s159.66-71.62,159.66-159.66S696.47,6,608.44,6Z"/><path class="d" d="M67.79,233.3a67.64,67.64,0,1,1,67.64-67.64A67.72,67.72,0,0,1,67.79,233.3Zm0-129.28a61.64,61.64,0,1,0,61.64,61.64A61.71,61.71,0,0,0,67.79,104Z"/><path class="e" d="M197.07,233.3a67.64,67.64,0,1,1,67.64-67.64A67.72,67.72,0,0,1,197.07,233.3Zm0-129.28a61.64,61.64,0,1,0,61.64,61.64A61.71,61.71,0,0,0,197.07,104Z"/><path class="f" d="M326.5,233.3a67.64,67.64,0,1,1,67.64-67.64A67.72,67.72,0,0,1,326.5,233.3Zm0-129.28a61.64,61.64,0,1,0,61.64,61.64A61.71,61.71,0,0,0,326.5,104Z"/><path class="g" d="M890.52,233.3a67.64,67.64,0,1,1,67.64-67.64A67.72,67.72,0,0,1,890.52,233.3Zm0-129.28a61.64,61.64,0,1,0,61.64,61.64A61.71,61.71,0,0,0,890.52,104Z"/><path class="h" d="M33.5,157.82l-1.25,2.83H30.89l5-11.2h1.33l5,11.2H40.86l-1.25-2.83Zm3-6.92L34,156.59h5Z"/><path class="h" d="M52.62,151.05l-.77,1a4.71,4.71,0,0,0-3.31-1.41,4.42,4.42,0,1,0,0,8.84,4.89,4.89,0,0,0,3.31-1.34l.78.88a6.18,6.18,0,0,1-4.16,1.73,5.65,5.65,0,1,1,0-11.3A6.06,6.06,0,0,1,52.62,151.05Z"/><path class="h" d="M58.35,150.69v10H57.07v-10H53.42v-1.23H62v1.23Z"/><path class="h" d="M63.87,160.66v-11.2h1.28v11.2Z"/><path class="h" d="M71.48,160.66l-4.55-11.2h1.38l3.86,9.72L76,149.45h1.34l-4.58,11.2Z"/><path class="h" d="M79.18,160.66v-11.2h1.28v11.2Z"/><path class="h" d="M87.26,150.69v10H86v-10H82.33v-1.23h8.6v1.23Z"/><path class="h" d="M96.75,160.66H95.48v-3.79l-4.34-7.41h1.33l3.63,5.84,3.58-5.84H101l-4.26,7.36Z"/><path class="h" d="M33.32,168.65c2.26,0,3.62,1,3.62,2.8A2.44,2.44,0,0,1,34.87,174a2.74,2.74,0,0,1,2.56,2.83c0,1.9-1.5,3-4,3h-4.8v-11.2Zm-3.44,4.83h3.38c1.5,0,2.38-.66,2.38-1.83s-.88-1.78-2.38-1.78H29.87Zm0,5.15h3.38c1.82,0,2.88-.72,2.88-2s-1.06-1.94-2.88-1.94H29.87Z"/><path class="h" d="M41,177l-1.25,2.83H38.42l5-11.2h1.33l5,11.2H48.39L47.14,177Zm3-6.92-2.5,5.68h5Z"/><path class="h" d="M60.15,170.25l-.77,1a4.71,4.71,0,0,0-3.31-1.41,4.42,4.42,0,1,0,0,8.84,4.89,4.89,0,0,0,3.31-1.34l.78.88A6.18,6.18,0,0,1,56,179.92a5.65,5.65,0,1,1,0-11.3A6.06,6.06,0,0,1,60.15,170.25Z"/><path class="h" d="M65.92,174.54l-2.18,2.39v2.93H62.47v-11.2h1.28v6.45l6-6.45h1.52l-4.43,4.87,4.77,6.34H70.05Z"/><path class="h" d="M79.84,178.64v1.22H73.65v-11.2h1.28v10Z"/><path class="h" d="M92.6,174.26a5.87,5.87,0,1,1-5.86-5.63A5.73,5.73,0,0,1,92.6,174.26Zm-10.44,0a4.56,4.56,0,1,0,4.58-4.42A4.52,4.52,0,0,0,82.16,174.26Z"/><path class="h" d="M103.61,174.38v4.07a6.93,6.93,0,0,1-4.16,1.47,5.65,5.65,0,1,1,.06-11.3,6.34,6.34,0,0,1,4.13,1.54l-.74,1a5.15,5.15,0,0,0-3.39-1.3,4.45,4.45,0,1,0,0,8.88,5.36,5.36,0,0,0,2.95-.94v-3.38Z"/><path class="h" d="M176.54,150.45l-.54,1.2a5.79,5.79,0,0,0-3.09-.94c-1.44,0-2.38.54-2.38,1.49,0,2.88,6.31,1.38,6.29,5.44,0,1.87-1.65,3.07-4,3.07a6.39,6.39,0,0,1-4.29-1.71l.58-1.15a5.57,5.57,0,0,0,3.73,1.58c1.62,0,2.63-.66,2.63-1.73,0-2.95-6.29-1.38-6.29-5.39,0-1.76,1.55-2.9,3.87-2.9A6.63,6.63,0,0,1,176.54,150.45Z"/><path class="h" d="M183.64,149.45c2.77,0,4.37,1.38,4.37,3.76s-1.6,3.91-4.37,3.91h-2.93v3.54h-1.28v-11.2Zm-2.93,6.43h2.88c2,0,3.18-.9,3.18-2.64s-1.17-2.56-3.18-2.56h-2.88Z"/><path class="h" d="M195.15,157.09c-.24,0-.5,0-.75,0h-3v3.54h-1.28v-11.2h4.26c2.8,0,4.42,1.38,4.42,3.76a3.51,3.51,0,0,1-2.51,3.63l2.63,3.81h-1.46Zm-.75-1.2c2,0,3.18-.9,3.18-2.64s-1.15-2.56-3.18-2.56h-3v5.2Z"/><path class="h" d="M201.71,160.66v-11.2H203v11.2Z"/><path class="h" d="M214.38,160.66l-6.72-9v9h-1.28v-11.2h1.33l6.72,9v-9h1.26v11.2Z"/><path class="h" d="M222.51,150.69v10h-1.28v-10h-3.65v-1.23h8.59v1.23Z"/><path class="h" d="M164.51,168.65c2.26,0,3.62,1,3.62,2.8a2.44,2.44,0,0,1-2.06,2.53,2.74,2.74,0,0,1,2.56,2.83c0,1.9-1.5,3-4,3h-4.8v-11.2Zm-3.44,4.83h3.38c1.5,0,2.39-.66,2.39-1.83s-.88-1.78-2.39-1.78h-3.38Zm0,5.15h3.38c1.83,0,2.88-.72,2.88-2s-1.06-1.94-2.88-1.94h-3.38Z"/><path class="h" d="M172.22,177,171,179.86h-1.36l5-11.2H176l5,11.2h-1.39L178.33,177Zm3-6.92-2.5,5.68h5Z"/><path class="h" d="M191.34,170.25l-.77,1a4.71,4.71,0,0,0-3.31-1.41,4.42,4.42,0,1,0,0,8.84,4.89,4.89,0,0,0,3.31-1.34l.78.88a6.19,6.19,0,0,1-4.16,1.73,5.65,5.65,0,1,1,0-11.3A6.05,6.05,0,0,1,191.34,170.25Z"/><path class="h" d="M197.12,174.54l-2.18,2.39v2.93h-1.28v-11.2h1.28v6.45l6-6.45h1.52L198,173.52l4.77,6.34h-1.57Z"/><path class="h" d="M211,178.64v1.22h-6.19v-11.2h1.28v10Z"/><path class="h" d="M223.79,174.26a5.87,5.87,0,1,1-5.86-5.63A5.73,5.73,0,0,1,223.79,174.26Zm-10.44,0a4.56,4.56,0,1,0,4.58-4.42A4.52,4.52,0,0,0,213.35,174.26Z"/><path class="h" d="M234.8,174.38v4.07a6.93,6.93,0,0,1-4.16,1.47,5.65,5.65,0,1,1,.06-11.3,6.34,6.34,0,0,1,4.13,1.54l-.74,1a5.15,5.15,0,0,0-3.39-1.3,4.45,4.45,0,1,0,0,8.88,5.36,5.36,0,0,0,2.95-.94v-3.38Z"/><path class="h" d="M315.33,156a4.31,4.31,0,0,1-4.69,4.67c-2.95,0-4.72-1.76-4.72-4.67v-6.59h1.28V156a3.43,3.43,0,1,0,6.85,0v-6.59h1.28Z"/><path class="h" d="M325.34,150.45l-.54,1.2a5.79,5.79,0,0,0-3.09-.94c-1.44,0-2.38.54-2.38,1.49,0,2.88,6.31,1.38,6.29,5.44,0,1.87-1.65,3.07-4,3.07a6.39,6.39,0,0,1-4.29-1.71l.58-1.15a5.57,5.57,0,0,0,3.73,1.58c1.62,0,2.63-.66,2.63-1.73,0-2.95-6.29-1.38-6.29-5.39,0-1.76,1.55-2.9,3.87-2.9A6.63,6.63,0,0,1,325.34,150.45Z"/><path class="h" d="M329.52,150.69v3.68h5.65v1.23h-5.65v3.84H336v1.22h-7.81v-11.2h7.6v1.23Z"/><path class="h" d="M343.66,157.09c-.24,0-.5,0-.75,0h-3v3.54h-1.28v-11.2h4.26c2.8,0,4.42,1.38,4.42,3.76a3.51,3.51,0,0,1-2.51,3.63l2.63,3.81H346Zm-.75-1.2c2,0,3.19-.9,3.19-2.64s-1.15-2.56-3.19-2.56h-3v5.2Z"/><path class="h" d="M303.54,179.86v-11.2h1.28v11.2Z"/><path class="h" d="M316.22,179.86l-6.72-9v9h-1.28v-11.2h1.33l6.72,9v-9h1.26v11.2Z"/><path class="h" d="M325.14,168.65c2.77,0,4.37,1.38,4.37,3.76s-1.6,3.91-4.37,3.91h-2.93v3.54h-1.28v-11.2Zm-2.93,6.43h2.88c2,0,3.19-.9,3.19-2.64s-1.17-2.56-3.19-2.56h-2.88Z"/><path class="h" d="M340.79,175.25a4.31,4.31,0,0,1-4.69,4.67c-2.95,0-4.72-1.76-4.72-4.67v-6.59h1.28v6.59a3.43,3.43,0,1,0,6.85,0v-6.59h1.28Z"/><path class="h" d="M347.33,169.89v10h-1.28v-10H342.4v-1.23H351v1.23Z"/><path class="h" d="M874,150.69v3.94h5.23v1.23H874v4.8h-1.28v-11.2h7.12v1.23Z"/><path class="h" d="M881.69,160.66v-11.2H883v11.2Z"/><path class="h" d="M894.37,160.66l-6.72-9v9h-1.28v-11.2h1.33l6.72,9v-9h1.26v11.2Z"/><path class="h" d="M900.06,157.82l-1.25,2.83h-1.36l5-11.2h1.33l5,11.2h-1.39l-1.25-2.83Zm3-6.92-2.5,5.68h5Z"/><path class="h" d="M916.77,159.44v1.22h-6.19v-11.2h1.28v10Z"/><path class="h" d="M873.37,174.26a5.87,5.87,0,1,1-5.86-5.63A5.73,5.73,0,0,1,873.37,174.26Zm-10.44,0a4.56,4.56,0,1,0,4.58-4.42A4.52,4.52,0,0,0,862.93,174.26Z"/><path class="h" d="M884.86,175.25a4.31,4.31,0,0,1-4.69,4.67c-2.95,0-4.72-1.76-4.72-4.67v-6.59h1.28v6.59a3.43,3.43,0,1,0,6.85,0v-6.59h1.28Z"/><path class="h" d="M891.4,169.89v10h-1.28v-10h-3.65v-1.23h8.6v1.23Z"/><path class="h" d="M901.13,168.65c2.77,0,4.37,1.38,4.37,3.76s-1.6,3.91-4.37,3.91H898.2v3.54h-1.28v-11.2Zm-2.93,6.43h2.88c2,0,3.19-.9,3.19-2.64s-1.17-2.56-3.19-2.56H898.2Z"/><path class="h" d="M916.78,175.25a4.31,4.31,0,0,1-4.69,4.67c-2.95,0-4.72-1.76-4.72-4.67v-6.59h1.28v6.59a3.43,3.43,0,1,0,6.85,0v-6.59h1.28Z"/><path class="h" d="M923.32,169.89v10H922v-10h-3.65v-1.23H927v1.23Z"/><path class="i" d="M447.66,205.66H381s13.13-16.85,13.13-40c0-25-13.13-40-13.13-40h66.65a188.26,188.26,0,0,0-4.88,40A188.26,188.26,0,0,0,447.66,205.66Z"/><path class="i" d="M769.34,205.66H836s-13.13-16.85-13.13-40c0-25,13.13-40,13.13-40H769.34a188.26,188.26,0,0,1,4.88,40A188.26,188.26,0,0,1,769.34,205.66Z"/><path class="h" d="M587.83,155.45l-.54,1.2a5.79,5.79,0,0,0-3.09-.95c-1.44,0-2.38.54-2.38,1.49,0,2.88,6.31,1.38,6.29,5.44,0,1.87-1.65,3.07-4,3.07a6.39,6.39,0,0,1-4.29-1.71l.58-1.15a5.57,5.57,0,0,0,3.73,1.59c1.62,0,2.63-.66,2.63-1.73,0-2.95-6.29-1.38-6.29-5.39,0-1.76,1.55-2.9,3.87-2.9A6.64,6.64,0,0,1,587.83,155.45Z"/><path class="h" d="M594.93,154.45c2.77,0,4.37,1.38,4.37,3.76s-1.6,3.91-4.37,3.91H592v3.54h-1.28V154.45ZM592,160.89h2.88c2,0,3.19-.9,3.19-2.64s-1.17-2.56-3.19-2.56H592Z"/><path class="h" d="M606.44,162.09c-.24,0-.5,0-.75,0h-3v3.54h-1.28V154.45h4.26c2.8,0,4.42,1.38,4.42,3.76a3.51,3.51,0,0,1-2.51,3.63l2.63,3.81h-1.46Zm-.75-1.2c2,0,3.19-.9,3.19-2.64s-1.15-2.56-3.19-2.56h-3v5.2Z"/><path class="h" d="M613,165.66V154.45h1.28v11.21Z"/><path class="h" d="M625.67,165.66l-6.72-9v9h-1.28V154.45H619l6.72,9v-9H627v11.21Z"/><path class="h" d="M633.8,155.69v10h-1.28v-10h-3.65v-1.23h8.6v1.23Z"/></svg>