<svg xmlns="http://www.w3.org/2000/svg" viewBox="0 0 12.02 20.67"><defs><style>.cls-1{fill:#062d4c;}.cls-2{fill:#217ff2;}</style></defs><title>logo</title><g id="Layer_2" data-name="Layer 2"><g id="Layer_1-2" data-name="Layer 1"><path class="cls-1" d="M6.47,0c2.77,0,4.66,1.77,4.66,4.06A3.4,3.4,0,0,1,9,7.18v0A4.15,4.15,0,0,1,12,11c0,2.65-1.76,4.71-5.44,4.71H0V0ZM5.84,6.26A2,2,0,0,0,8,4.44a1.92,1.92,0,0,0-2.16-1.8H3.1V6.26Zm.42,6.8a2.22,2.22,0,0,0,2.48-2.2,2.28,2.28,0,0,0-2.5-2.2H3.1v4.4Z"/><rect class="cls-2" x="0.02" y="18.67" width="12" height="2"/></g></g></svg>