<svg xmlns="http://www.w3.org/2000/svg" viewBox="0 0 199.49 478.54">
  <defs>
    <style>
      .cls-1 {
        fill: #eef4f5;
      }

      .cls-2, .cls-3 {
        fill: #c6d1df;
      }

      .cls-3, .cls-7 {
        fill-rule: evenodd;
      }

      .cls-4 {
        opacity: 0.7;
      }

      .cls-5, .cls-7 {
        fill: #8b9198;
      }

      .cls-6 {
        opacity: 0.6;
      }
    </style>
  </defs>
  <title>Asset 2</title>
  <g id="Layer_2" data-name="Layer 2">
    <g id="Layer_1-2" data-name="Layer 1">
      <path class="cls-1" d="M147.68,142.6h49a2,2,0,0,1,2,2v60.5a2,2,0,0,1-2,2h-49a2,2,0,0,1-2-2V144.6A2,2,0,0,1,147.68,142.6Z"/>
      <path class="cls-2" d="M196.68,143.1a1.5,1.5,0,0,1,1.5,1.5v60.5a1.5,1.5,0,0,1-1.5,1.5h-49a1.5,1.5,0,0,1-1.5-1.5V144.6a1.5,1.5,0,0,1,1.5-1.5h49m0-.5h-49a2,2,0,0,0-2,2v60.5a2,2,0,0,0,2,2h49a2,2,0,0,0,2-2V144.6a2,2,0,0,0-2-2Z"/>
      <path class="cls-1" d="M2,55.68H51a2,2,0,0,1,2,2v60.5a2,2,0,0,1-2,2H2a2,2,0,0,1-2-2V57.68A2,2,0,0,1,2,55.68Z"/>
      <path class="cls-2" d="M51,56.18a1.5,1.5,0,0,1,1.5,1.5v60.5a1.5,1.5,0,0,1-1.5,1.5H2a1.5,1.5,0,0,1-1.5-1.5V57.68A1.5,1.5,0,0,1,2,56.18H51m0-.5H2a2,2,0,0,0-2,2v60.5a2,2,0,0,0,2,2H51a2,2,0,0,0,2-2V57.68a2,2,0,0,0-2-2Z"/>
      <path class="cls-1" d="M74.5,55.68h49a2,2,0,0,1,2,2v60.5a2,2,0,0,1-2,2h-49a2,2,0,0,1-2-2V57.68A2,2,0,0,1,74.5,55.68Z"/>
      <path class="cls-2" d="M123.5,56.18a1.5,1.5,0,0,1,1.5,1.5v60.5a1.5,1.5,0,0,1-1.5,1.5h-49a1.5,1.5,0,0,1-1.5-1.5V57.68a1.5,1.5,0,0,1,1.5-1.5h49m0-.5h-49a2,2,0,0,0-2,2v60.5a2,2,0,0,0,2,2h49a2,2,0,0,0,2-2V57.68a2,2,0,0,0-2-2Z"/>
      <path class="cls-1" d="M74.5,142.6h49a2,2,0,0,1,2,2v60.5a2,2,0,0,1-2,2h-49a2,2,0,0,1-2-2V144.6A2,2,0,0,1,74.5,142.6Z"/>
      <path class="cls-2" d="M123.5,143.1a1.5,1.5,0,0,1,1.5,1.5v60.5a1.5,1.5,0,0,1-1.5,1.5h-49a1.5,1.5,0,0,1-1.5-1.5V144.6a1.5,1.5,0,0,1,1.5-1.5h49m0-.5h-49a2,2,0,0,0-2,2v60.5a2,2,0,0,0,2,2h49a2,2,0,0,0,2-2V144.6a2,2,0,0,0-2-2Z"/>
      <path class="cls-2" d="M100.22,47.23h-1V41.3H26.43V42h0v5.19h-1c-.25,0-.35.16-.23.35l1.33,1.48a.25.25,0,0,0,.45,0l1.33-1.48c.12-.19,0-.35-.23-.35h-1V42H98.52v5.19h-1c-.25,0-.35.16-.23.35l1.33,1.48a.25.25,0,0,0,.45,0l1.33-1.48C100.57,47.39,100.47,47.23,100.22,47.23Z"/>
      <path class="cls-1" d="M147.63,322.82h49a2,2,0,0,1,2,2v60.5a2,2,0,0,1-2,2h-49a2,2,0,0,1-2-2v-60.5A2,2,0,0,1,147.63,322.82Z"/>
      <path class="cls-2" d="M196.63,323.32a1.5,1.5,0,0,1,1.5,1.5v60.5a1.5,1.5,0,0,1-1.5,1.5h-49a1.5,1.5,0,0,1-1.5-1.5v-60.5a1.5,1.5,0,0,1,1.5-1.5h49m0-.5h-49a2,2,0,0,0-2,2v60.5a2,2,0,0,0,2,2h49a2,2,0,0,0,2-2v-60.5a2,2,0,0,0-2-2Z"/>
      <path class="cls-1" d="M146.75,235.39h49a2,2,0,0,1,2,2v60.5a2,2,0,0,1-2,2h-49a2,2,0,0,1-2-2v-60.5A2,2,0,0,1,146.75,235.39Z"/>
      <path class="cls-2" d="M195.75,235.89a1.5,1.5,0,0,1,1.5,1.5v60.5a1.5,1.5,0,0,1-1.5,1.5h-49a1.5,1.5,0,0,1-1.5-1.5v-60.5a1.5,1.5,0,0,1,1.5-1.5h49m0-.5h-49a2,2,0,0,0-2,2v60.5a2,2,0,0,0,2,2h49a2,2,0,0,0,2-2v-60.5a2,2,0,0,0-2-2Z"/>
      <path class="cls-1" d="M74.5,235.39h49a2,2,0,0,1,2,2v60.5a2,2,0,0,1-2,2h-49a2,2,0,0,1-2-2v-60.5A2,2,0,0,1,74.5,235.39Z"/>
      <path class="cls-2" d="M123.5,235.89a1.5,1.5,0,0,1,1.5,1.5v60.5a1.5,1.5,0,0,1-1.5,1.5h-49a1.5,1.5,0,0,1-1.5-1.5v-60.5a1.5,1.5,0,0,1,1.5-1.5h49m0-.5h-49a2,2,0,0,0-2,2v60.5a2,2,0,0,0,2,2h49a2,2,0,0,0,2-2v-60.5a2,2,0,0,0-2-2Z"/>
      <path class="cls-1" d="M75.4,323h49a2,2,0,0,1,2,2v60.5a2,2,0,0,1-2,2h-49a2,2,0,0,1-2-2V325A2,2,0,0,1,75.4,323Z"/>
      <path class="cls-2" d="M124.4,323.47a1.5,1.5,0,0,1,1.5,1.5v60.5a1.5,1.5,0,0,1-1.5,1.5h-49a1.5,1.5,0,0,1-1.5-1.5V325a1.5,1.5,0,0,1,1.5-1.5h49m0-.5h-49a2,2,0,0,0-2,2v60.5a2,2,0,0,0,2,2h49a2,2,0,0,0,2-2V325a2,2,0,0,0-2-2Z"/>
      <rect class="cls-1" x="0.16" y="142.85" width="53" height="64.5" rx="2" ry="2"/>
      <path class="cls-2" d="M172.53,134.35h-1v-5.93H98.1v.74h.63v5.19h-1c-.25,0-.35.16-.23.35l1.33,1.48a.25.25,0,0,0,.45,0l1.33-1.48c.12-.19,0-.35-.23-.35h-1v-5.19h71.36v5.19h-1c-.25,0-.35.16-.23.35l1.33,1.48a.25.25,0,0,0,.45,0l1.33-1.48C172.88,134.51,172.78,134.35,172.53,134.35Z"/>
      <path class="cls-2" d="M177.68,153.35H150.43a1,1,0,0,0-1,1v27a1,1,0,0,0,1,1h27.25a1,1,0,0,0,1-1v-27A1,1,0,0,0,177.68,153.35Zm16.25,0H182.68a1,1,0,0,0-1,1v48a1,1,0,0,0,1,1h11.25a1,1,0,0,0,1-1v-48A1,1,0,0,0,193.93,153.35Zm-16.25,32H150.43a1,1,0,0,0-1,1v5.75a1,1,0,0,0,1,1h27.25a1,1,0,0,0,1-1v-5.75A1,1,0,0,0,177.68,185.35Zm0,10.25H150.43a1,1,0,0,0-1,1v5.75a1,1,0,0,0,1,1h27.25a1,1,0,0,0,1-1V196.6A1,1,0,0,0,177.68,195.6Z"/>
      <path class="cls-2" d="M32,66.43H4.75a1,1,0,0,0-1,1v27a1,1,0,0,0,1,1H32a1,1,0,0,0,1-1v-27A1,1,0,0,0,32,66.43Zm16.25,0H37a1,1,0,0,0-1,1v48a1,1,0,0,0,1,1H48.25a1,1,0,0,0,1-1v-48A1,1,0,0,0,48.25,66.43ZM32,98.43H4.75a1,1,0,0,0-1,1v5.75a1,1,0,0,0,1,1H32a1,1,0,0,0,1-1V99.43A1,1,0,0,0,32,98.43Zm0,10.25H4.75a1,1,0,0,0-1,1v5.75a1,1,0,0,0,1,1H32a1,1,0,0,0,1-1v-5.75A1,1,0,0,0,32,108.68Z"/>
      <path class="cls-2" d="M104.5,66.43H77.25a1,1,0,0,0-1,1v27a1,1,0,0,0,1,1H104.5a1,1,0,0,0,1-1v-27A1,1,0,0,0,104.5,66.43Zm16.25,0H109.5a1,1,0,0,0-1,1v48a1,1,0,0,0,1,1h11.25a1,1,0,0,0,1-1v-48A1,1,0,0,0,120.75,66.43Zm-16.25,32H77.25a1,1,0,0,0-1,1v5.75a1,1,0,0,0,1,1H104.5a1,1,0,0,0,1-1V99.43A1,1,0,0,0,104.5,98.43Zm0,10.25H77.25a1,1,0,0,0-1,1v5.75a1,1,0,0,0,1,1H104.5a1,1,0,0,0,1-1v-5.75A1,1,0,0,0,104.5,108.68Z"/>
      <path class="cls-3" d="M100.24,47.37h-.89v-4a1.5,1.5,0,1,0-.69,0v4h-.89c-.23,0-.33.15-.21.33l1.24,1.38a.23.23,0,0,0,.42,0l1.24-1.38C100.57,47.52,100.47,47.37,100.24,47.37Z"/>
      <path class="cls-2" d="M104.5,153.35H77.25a1,1,0,0,0-1,1v27a1,1,0,0,0,1,1H104.5a1,1,0,0,0,1-1v-27A1,1,0,0,0,104.5,153.35Zm16.25,0H109.5a1,1,0,0,0-1,1v48a1,1,0,0,0,1,1h11.25a1,1,0,0,0,1-1v-48A1,1,0,0,0,120.75,153.35Zm-16.25,32H77.25a1,1,0,0,0-1,1v5.75a1,1,0,0,0,1,1H104.5a1,1,0,0,0,1-1v-5.75A1,1,0,0,0,104.5,185.35Zm0,10.25H77.25a1,1,0,0,0-1,1v5.75a1,1,0,0,0,1,1H104.5a1,1,0,0,0,1-1V196.6A1,1,0,0,0,104.5,195.6Z"/>
      <path class="cls-3" d="M100.24,134.3h-.89v-4a1.5,1.5,0,1,0-.69,0v4h-.89c-.23,0-.33.15-.21.33L98.79,136a.23.23,0,0,0,.42,0l1.24-1.38C100.57,134.45,100.47,134.3,100.24,134.3Z"/>
      <path class="cls-3" d="M173.33,313.88h-.91v-4a1.53,1.53,0,1,0-.71,0v4h-.91c-.24,0-.33.15-.22.33l1.26,1.4a.24.24,0,0,0,.43,0l1.26-1.4C173.67,314,173.57,313.88,173.33,313.88Z"/>
      <path class="cls-3" d="M101.16,313.88h-.91v-4a1.53,1.53,0,1,0-.71,0v4h-.91c-.24,0-.33.15-.22.33l1.26,1.4a.24.24,0,0,0,.43,0l1.26-1.4C101.5,314,101.4,313.88,101.16,313.88Z"/>
      <path class="cls-3" d="M101.16,404.92h-.91v-4a1.53,1.53,0,1,0-.71,0v4h-.91c-.24,0-.33.15-.22.33l1.26,1.4a.24.24,0,0,0,.43,0l1.26-1.4C101.5,405.07,101.4,404.92,101.16,404.92Z"/>
      <path class="cls-3" d="M100.34,226.3h-.91v-4a1.53,1.53,0,1,0-.71,0v4h-.91c-.24,0-.33.15-.22.33l1.26,1.4a.24.24,0,0,0,.43,0l1.26-1.4C100.68,226.46,100.58,226.3,100.34,226.3Z"/>
      <g>
        <rect class="cls-1" x="72.5" y="0.07" width="53" height="30.53" rx="1.76" ry="1.76"/>
        <path class="cls-2" d="M123,0H75a2.22,2.22,0,0,0-2.21,2.21V28.46A2.22,2.22,0,0,0,75,30.67H123a2.21,2.21,0,0,0,2.21-2.21V2.21A2.21,2.21,0,0,0,123,0Zm1.71,28.46A1.71,1.71,0,0,1,123,30.17H75a1.71,1.71,0,0,1-1.71-1.71V2.21A1.71,1.71,0,0,1,75,.5H123a1.71,1.71,0,0,1,1.71,1.71Z"/>
      </g>
      <path class="cls-2" d="M150.38,353.82h19.25a1,1,0,0,0,1-1V334.57a1,1,0,0,0-1-1H150.38a1,1,0,0,0-1,1v18.25A1,1,0,0,0,150.38,353.82Zm11.25,15.25H150.38a1,1,0,0,0-1,1v12.5a1,1,0,0,0,1,1h11.25a1,1,0,0,0,1-1v-12.5A1,1,0,0,0,161.63,369.07Zm16,0h-11a1,1,0,0,0-1,1v12.5a1,1,0,0,0,1,1h11a1,1,0,0,0,1-1v-12.5A1,1,0,0,0,177.63,369.07Zm16.25,0H182.63a1,1,0,0,0-1,1v12.5a1,1,0,0,0,1,1h11.25a1,1,0,0,0,1-1v-12.5A1,1,0,0,0,193.88,369.07Z"/>
      <g class="cls-4">
        <path class="cls-5" d="M194.63,336.32H173.88a.25.25,0,0,0-.25.25v.75a.25.25,0,0,0,.25.25h20.75a.25.25,0,0,0,.25-.25v-.75A.25.25,0,0,0,194.63,336.32Zm0,3H173.88a.25.25,0,0,0-.25.25v.25a.25.25,0,0,0,.25.25h20.75a.25.25,0,0,0,.25-.25v-.25A.25.25,0,0,0,194.63,339.32Zm0,2.25H173.88a.25.25,0,0,0-.25.25v.25a.25.25,0,0,0,.25.25h20.75a.25.25,0,0,0,.25-.25v-.25A.25.25,0,0,0,194.63,341.57Zm0,2.25H173.88a.25.25,0,0,0-.25.25v.25a.25.25,0,0,0,.25.25h20.75a.25.25,0,0,0,.25-.25v-.25A.25.25,0,0,0,194.63,343.82Zm0-10.25H173.88a.25.25,0,0,0-.25.25v.75a.25.25,0,0,0,.25.25h20.75a.25.25,0,0,0,.25-.25v-.75A.25.25,0,0,0,194.63,333.57Zm0,12.5H173.88a.25.25,0,0,0-.25.25v.25a.25.25,0,0,0,.25.25h20.75a.25.25,0,0,0,.25-.25v-.25A.25.25,0,0,0,194.63,346.07Zm0,2.25H173.88a.25.25,0,0,0-.25.25v.25a.25.25,0,0,0,.25.25h20.75a.25.25,0,0,0,.25-.25v-.25A.25.25,0,0,0,194.63,348.32Zm0,2.25H173.88a.25.25,0,0,0-.25.25v.25a.25.25,0,0,0,.25.25h20.75a.25.25,0,0,0,.25-.25v-.25A.25.25,0,0,0,194.63,350.57Zm0,2.25H173.88a.25.25,0,0,0-.25.25v.25a.25.25,0,0,0,.25.25h20.75a.25.25,0,0,0,.25-.25v-.25A.25.25,0,0,0,194.63,352.82Zm0,6h-45a.25.25,0,0,0-.25.25v.25a.25.25,0,0,0,.25.25h45a.25.25,0,0,0,.25-.25v-.25A.25.25,0,0,0,194.63,358.82Zm0,2.25h-45a.25.25,0,0,0-.25.25v.25a.25.25,0,0,0,.25.25h45a.25.25,0,0,0,.25-.25v-.25A.25.25,0,0,0,194.63,361.07Zm0,2.25h-45a.25.25,0,0,0-.25.25v.25a.25.25,0,0,0,.25.25h45a.25.25,0,0,0,.25-.25v-.25A.25.25,0,0,0,194.63,363.32Zm0,2.25h-45a.25.25,0,0,0-.25.25v.25a.25.25,0,0,0,.25.25h45a.25.25,0,0,0,.25-.25v-.25A.25.25,0,0,0,194.63,365.57Zm0-9h-45a.25.25,0,0,0-.25.25v.25a.25.25,0,0,0,.25.25h45a.25.25,0,0,0,.25-.25v-.25A.25.25,0,0,0,194.63,356.57Z"/>
      </g>
      <path class="cls-2" d="M172.53,226.3h-1v-5.93H98.1v.74h.63v5.19h-1c-.25,0-.35.16-.23.35l1.33,1.48a.25.25,0,0,0,.45,0l1.33-1.48c.12-.19,0-.35-.23-.35h-1v-5.19h71.36v5.19h-1c-.25,0-.35.16-.23.35l1.33,1.48a.25.25,0,0,0,.45,0l1.33-1.48C172.88,226.46,172.78,226.3,172.53,226.3Z"/>
      <path class="cls-2" d="M160.75,281.64H149.5a1,1,0,0,0-1,1v12.5a1,1,0,0,0,1,1h11.25a1,1,0,0,0,1-1v-12.5A1,1,0,0,0,160.75,281.64Zm16,0h-11a1,1,0,0,0-1,1v12.5a1,1,0,0,0,1,1h11a1,1,0,0,0,1-1v-12.5A1,1,0,0,0,176.75,281.64Zm16.25,0H181.75a1,1,0,0,0-1,1v12.5a1,1,0,0,0,1,1H193a1,1,0,0,0,1-1v-12.5A1,1,0,0,0,193,281.64Zm-32.25-17.75H149.5a1,1,0,0,0-1,1v12.75a1,1,0,0,0,1,1h11.25a1,1,0,0,0,1-1V264.89A1,1,0,0,0,160.75,263.89Zm16,0h-11a1,1,0,0,0-1,1v12.75a1,1,0,0,0,1,1h11a1,1,0,0,0,1-1V264.89A1,1,0,0,0,176.75,263.89Zm16.25,0H181.75a1,1,0,0,0-1,1v12.75a1,1,0,0,0,1,1H193a1,1,0,0,0,1-1V264.89A1,1,0,0,0,193,263.89Zm-32.25-17.75H149.5a1,1,0,0,0-1,1v12.75a1,1,0,0,0,1,1h11.25a1,1,0,0,0,1-1V247.14A1,1,0,0,0,160.75,246.14Zm16,0h-11a1,1,0,0,0-1,1v12.75a1,1,0,0,0,1,1h11a1,1,0,0,0,1-1V247.14A1,1,0,0,0,176.75,246.14Zm16.25,0H181.75a1,1,0,0,0-1,1v12.75a1,1,0,0,0,1,1H193a1,1,0,0,0,1-1V247.14A1,1,0,0,0,193,246.14Z"/>
      <path class="cls-2" d="M88.5,281.64H77.25a1,1,0,0,0-1,1v12.5a1,1,0,0,0,1,1H88.5a1,1,0,0,0,1-1v-12.5A1,1,0,0,0,88.5,281.64Zm16,0h-11a1,1,0,0,0-1,1v12.5a1,1,0,0,0,1,1h11a1,1,0,0,0,1-1v-12.5A1,1,0,0,0,104.5,281.64Zm16.25,0H109.5a1,1,0,0,0-1,1v12.5a1,1,0,0,0,1,1h11.25a1,1,0,0,0,1-1v-12.5A1,1,0,0,0,120.75,281.64ZM88.5,263.89H77.25a1,1,0,0,0-1,1v12.75a1,1,0,0,0,1,1H88.5a1,1,0,0,0,1-1V264.89A1,1,0,0,0,88.5,263.89Zm16,0h-11a1,1,0,0,0-1,1v12.75a1,1,0,0,0,1,1h11a1,1,0,0,0,1-1V264.89A1,1,0,0,0,104.5,263.89Zm16.25,0H109.5a1,1,0,0,0-1,1v12.75a1,1,0,0,0,1,1h11.25a1,1,0,0,0,1-1V264.89A1,1,0,0,0,120.75,263.89ZM88.5,246.14H77.25a1,1,0,0,0-1,1v12.75a1,1,0,0,0,1,1H88.5a1,1,0,0,0,1-1V247.14A1,1,0,0,0,88.5,246.14Zm16,0h-11a1,1,0,0,0-1,1v12.75a1,1,0,0,0,1,1h11a1,1,0,0,0,1-1V247.14A1,1,0,0,0,104.5,246.14Zm16.25,0H109.5a1,1,0,0,0-1,1v12.75a1,1,0,0,0,1,1h11.25a1,1,0,0,0,1-1V247.14A1,1,0,0,0,120.75,246.14Z"/>
      <path class="cls-2" d="M78.15,354H97.4a1,1,0,0,0,1-1V334.72a1,1,0,0,0-1-1H78.15a1,1,0,0,0-1,1V353A1,1,0,0,0,78.15,354ZM89.4,369.22H78.15a1,1,0,0,0-1,1v12.5a1,1,0,0,0,1,1H89.4a1,1,0,0,0,1-1v-12.5A1,1,0,0,0,89.4,369.22Zm16,0h-11a1,1,0,0,0-1,1v12.5a1,1,0,0,0,1,1h11a1,1,0,0,0,1-1v-12.5A1,1,0,0,0,105.4,369.22Zm16.25,0H110.4a1,1,0,0,0-1,1v12.5a1,1,0,0,0,1,1h11.25a1,1,0,0,0,1-1v-12.5A1,1,0,0,0,121.65,369.22Z"/>
      <g class="cls-4">
        <path class="cls-5" d="M122.4,336.47H101.65a.25.25,0,0,0-.25.25v.75a.25.25,0,0,0,.25.25H122.4a.25.25,0,0,0,.25-.25v-.75A.25.25,0,0,0,122.4,336.47Zm0,3H101.65a.25.25,0,0,0-.25.25V340a.25.25,0,0,0,.25.25H122.4a.25.25,0,0,0,.25-.25v-.25A.25.25,0,0,0,122.4,339.47Zm0,2.25H101.65a.25.25,0,0,0-.25.25v.25a.25.25,0,0,0,.25.25H122.4a.25.25,0,0,0,.25-.25V342A.25.25,0,0,0,122.4,341.72Zm0,2.25H101.65a.25.25,0,0,0-.25.25v.25a.25.25,0,0,0,.25.25H122.4a.25.25,0,0,0,.25-.25v-.25A.25.25,0,0,0,122.4,344Zm0-10.25H101.65a.25.25,0,0,0-.25.25v.75a.25.25,0,0,0,.25.25H122.4a.25.25,0,0,0,.25-.25V334A.25.25,0,0,0,122.4,333.72Zm0,12.5H101.65a.25.25,0,0,0-.25.25v.25a.25.25,0,0,0,.25.25H122.4a.25.25,0,0,0,.25-.25v-.25A.25.25,0,0,0,122.4,346.22Zm0,2.25H101.65a.25.25,0,0,0-.25.25V349a.25.25,0,0,0,.25.25H122.4a.25.25,0,0,0,.25-.25v-.25A.25.25,0,0,0,122.4,348.47Zm0,2.25H101.65a.25.25,0,0,0-.25.25v.25a.25.25,0,0,0,.25.25H122.4a.25.25,0,0,0,.25-.25V351A.25.25,0,0,0,122.4,350.72Zm0,2.25H101.65a.25.25,0,0,0-.25.25v.25a.25.25,0,0,0,.25.25H122.4a.25.25,0,0,0,.25-.25v-.25A.25.25,0,0,0,122.4,353Zm0,6h-45a.25.25,0,0,0-.25.25v.25a.25.25,0,0,0,.25.25h45a.25.25,0,0,0,.25-.25v-.25A.25.25,0,0,0,122.4,359Zm0,2.25h-45a.25.25,0,0,0-.25.25v.25a.25.25,0,0,0,.25.25h45a.25.25,0,0,0,.25-.25v-.25A.25.25,0,0,0,122.4,361.22Zm0,2.25h-45a.25.25,0,0,0-.25.25V364a.25.25,0,0,0,.25.25h45a.25.25,0,0,0,.25-.25v-.25A.25.25,0,0,0,122.4,363.47Zm0,2.25h-45a.25.25,0,0,0-.25.25v.25a.25.25,0,0,0,.25.25h45a.25.25,0,0,0,.25-.25V366A.25.25,0,0,0,122.4,365.72Zm0-9h-45a.25.25,0,0,0-.25.25v.25a.25.25,0,0,0,.25.25h45a.25.25,0,0,0,.25-.25V357A.25.25,0,0,0,122.4,356.72Z"/>
      </g>
      <path class="cls-3" d="M27.92,133.73H27v-4a1.53,1.53,0,1,0-.71,0v4H25.4c-.24,0-.33.15-.22.33l1.26,1.4a.24.24,0,0,0,.43,0l1.26-1.4C28.26,133.88,28.16,133.73,27.92,133.73Z"/>
      <g>
        <rect class="cls-2" x="3.91" y="153.6" width="45.5" height="5" rx="1" ry="1"/>
        <rect class="cls-2" x="3.91" y="198.6" width="31.25" height="5" rx="1" ry="1"/>
        <rect class="cls-2" x="3.91" y="162.35" width="9.25" height="8.75" rx="1" ry="1"/>
        <rect class="cls-2" x="3.91" y="174.1" width="9.25" height="8.75" rx="1" ry="1"/>
        <rect class="cls-2" x="3.91" y="185.85" width="9.25" height="8.75" rx="1" ry="1"/>
        <rect class="cls-2" x="31.41" y="164.6" width="9.75" height="3.75" rx="0.25" ry="0.25"/>
        <rect class="cls-2" x="31.41" y="176.35" width="9.75" height="3.75" rx="0.25" ry="0.25"/>
        <rect class="cls-2" x="31.41" y="188.1" width="9.75" height="3.75" rx="0.25" ry="0.25"/>
      </g>
      <path class="cls-3" d="M174.25,404.92h-.91v-4a1.53,1.53,0,1,0-.71,0v4h-.91c-.24,0-.33.15-.22.33l1.26,1.4a.24.24,0,0,0,.43,0l1.26-1.4C174.58,405.07,174.49,404.92,174.25,404.92Z"/>
      <path class="cls-2" d="M51.16,142.85h-49a2,2,0,0,0-2,2v60.5a2,2,0,0,0,2,2h49a2,2,0,0,0,2-2v-60.5A2,2,0,0,0,51.16,142.85Zm1.5,62.5a1.5,1.5,0,0,1-1.5,1.5h-49a1.5,1.5,0,0,1-1.5-1.5v-60.5a1.5,1.5,0,0,1,1.5-1.5h49a1.5,1.5,0,0,1,1.5,1.5Z"/>
      <rect class="cls-1" x="73.4" y="414.05" width="53" height="64.5" rx="2" ry="2"/>
      <g>
        <rect class="cls-2" x="77.15" y="424.79" width="45.5" height="5" rx="1" ry="1"/>
        <rect class="cls-2" x="77.15" y="469.79" width="31.25" height="5" rx="1" ry="1"/>
        <rect class="cls-2" x="77.15" y="433.54" width="9.25" height="8.75" rx="1" ry="1"/>
        <rect class="cls-2" x="77.15" y="445.29" width="9.25" height="8.75" rx="1" ry="1"/>
        <rect class="cls-2" x="77.15" y="457.04" width="9.25" height="8.75" rx="1" ry="1"/>
        <rect class="cls-2" x="104.65" y="435.79" width="9.75" height="3.75" rx="0.25" ry="0.25"/>
        <rect class="cls-2" x="104.65" y="447.54" width="9.75" height="3.75" rx="0.25" ry="0.25"/>
        <rect class="cls-2" x="104.65" y="459.29" width="9.75" height="3.75" rx="0.25" ry="0.25"/>
      </g>
      <path class="cls-2" d="M124.4,414h-49a2,2,0,0,0-2,2v60.5a2,2,0,0,0,2,2h49a2,2,0,0,0,2-2V416A2,2,0,0,0,124.4,414Zm1.5,62.5a1.5,1.5,0,0,1-1.5,1.5h-49a1.5,1.5,0,0,1-1.5-1.5V416a1.5,1.5,0,0,1,1.5-1.5h49a1.5,1.5,0,0,1,1.5,1.5Z"/>
      <rect class="cls-1" x="146.49" y="414.05" width="53" height="64.5" rx="2" ry="2"/>
      <g>
        <rect class="cls-2" x="150.24" y="424.79" width="45.5" height="5" rx="1" ry="1"/>
        <rect class="cls-2" x="150.24" y="469.79" width="31.25" height="5" rx="1" ry="1"/>
        <rect class="cls-2" x="150.24" y="433.54" width="9.25" height="8.75" rx="1" ry="1"/>
        <rect class="cls-2" x="150.24" y="445.29" width="9.25" height="8.75" rx="1" ry="1"/>
        <rect class="cls-2" x="150.24" y="457.04" width="9.25" height="8.75" rx="1" ry="1"/>
        <rect class="cls-2" x="177.74" y="435.79" width="9.75" height="3.75" rx="0.25" ry="0.25"/>
        <rect class="cls-2" x="177.74" y="447.54" width="9.75" height="3.75" rx="0.25" ry="0.25"/>
        <rect class="cls-2" x="177.74" y="459.29" width="9.75" height="3.75" rx="0.25" ry="0.25"/>
      </g>
      <g class="cls-6">
        <path class="cls-5" d="M174.93,156.85h-12a.25.25,0,0,0-.25.25v.75a.25.25,0,0,0,.25.25h12a.25.25,0,0,0,.25-.25v-.75A.25.25,0,0,0,174.93,156.85Zm0,3h-12a.25.25,0,0,0-.25.25v.25a.25.25,0,0,0,.25.25h12a.25.25,0,0,0,.25-.25v-.25A.25.25,0,0,0,174.93,159.85Zm0,2h-12a.25.25,0,0,0-.25.25v.25a.25.25,0,0,0,.25.25h12a.25.25,0,0,0,.25-.25v-.25A.25.25,0,0,0,174.93,161.85Zm0,2H153.18a.25.25,0,0,0-.25.25v.25a.25.25,0,0,0,.25.25h21.75a.25.25,0,0,0,.25-.25v-.25A.25.25,0,0,0,174.93,163.85Zm0,2H153.18a.25.25,0,0,0-.25.25v.25a.25.25,0,0,0,.25.25h21.75a.25.25,0,0,0,.25-.25v-.25A.25.25,0,0,0,174.93,165.85Zm0,2H153.18a.25.25,0,0,0-.25.25v.25a.25.25,0,0,0,.25.25h21.75a.25.25,0,0,0,.25-.25v-.25A.25.25,0,0,0,174.93,167.85Zm0,2H153.18a.25.25,0,0,0-.25.25v.25a.25.25,0,0,0,.25.25h21.75a.25.25,0,0,0,.25-.25v-.25A.25.25,0,0,0,174.93,169.85Zm0,2H153.18a.25.25,0,0,0-.25.25v.25a.25.25,0,0,0,.25.25h21.75a.25.25,0,0,0,.25-.25v-.25A.25.25,0,0,0,174.93,171.85Zm0,2H153.18a.25.25,0,0,0-.25.25v.25a.25.25,0,0,0,.25.25h21.75a.25.25,0,0,0,.25-.25v-.25A.25.25,0,0,0,174.93,173.85Zm0,2H153.18a.25.25,0,0,0-.25.25v.25a.25.25,0,0,0,.25.25h21.75a.25.25,0,0,0,.25-.25v-.25A.25.25,0,0,0,174.93,175.85Zm0,2H153.18a.25.25,0,0,0-.25.25v.25a.25.25,0,0,0,.25.25h21.75a.25.25,0,0,0,.25-.25v-.25A.25.25,0,0,0,174.93,177.85Zm0,10h-15.5a.25.25,0,0,0-.25.25v.25a.25.25,0,0,0,.25.25h15.5a.25.25,0,0,0,.25-.25v-.25A.25.25,0,0,0,174.93,187.85Zm0,2h-15.5a.25.25,0,0,0-.25.25v.25a.25.25,0,0,0,.25.25h15.5a.25.25,0,0,0,.25-.25v-.25A.25.25,0,0,0,174.93,189.85Zm0,8.25h-15.5a.25.25,0,0,0-.25.25v.25a.25.25,0,0,0,.25.25h15.5a.25.25,0,0,0,.25-.25v-.25A.25.25,0,0,0,174.93,198.1Zm0,2h-15.5a.25.25,0,0,0-.25.25v.25a.25.25,0,0,0,.25.25h15.5a.25.25,0,0,0,.25-.25v-.25A.25.25,0,0,0,174.93,200.1Zm-20.12-12.75a1.88,1.88,0,1,0,1.88,1.87A1.87,1.87,0,0,0,154.81,187.35Zm0,10.25a1.88,1.88,0,1,0,1.88,1.88A1.87,1.87,0,0,0,154.81,197.6Zm4.09-36c.16,0,.21-.14.12-.27l-2.11-3.06a.21.21,0,0,0-.35,0l-.81,1a.26.26,0,0,1-.39,0l-.34-.33a.24.24,0,0,0-.37,0L153,161.34c-.09.13,0,.27.12.27Zm-.34-3a.62.62,0,1,0-.63-.62A.63.63,0,0,0,158.56,158.6Z"/>
        <path class="cls-5" d="M29.25,69.93h-12a.25.25,0,0,0-.25.25v.75a.25.25,0,0,0,.25.25h12a.25.25,0,0,0,.25-.25v-.75A.25.25,0,0,0,29.25,69.93Zm0,3h-12a.25.25,0,0,0-.25.25v.25a.25.25,0,0,0,.25.25h12a.25.25,0,0,0,.25-.25v-.25A.25.25,0,0,0,29.25,72.93Zm0,2h-12a.25.25,0,0,0-.25.25v.25a.25.25,0,0,0,.25.25h12a.25.25,0,0,0,.25-.25v-.25A.25.25,0,0,0,29.25,74.93Zm0,2H7.5a.25.25,0,0,0-.25.25v.25a.25.25,0,0,0,.25.25H29.25a.25.25,0,0,0,.25-.25v-.25A.25.25,0,0,0,29.25,76.93Zm0,2H7.5a.25.25,0,0,0-.25.25v.25a.25.25,0,0,0,.25.25H29.25a.25.25,0,0,0,.25-.25v-.25A.25.25,0,0,0,29.25,78.93Zm0,2H7.5a.25.25,0,0,0-.25.25v.25a.25.25,0,0,0,.25.25H29.25a.25.25,0,0,0,.25-.25v-.25A.25.25,0,0,0,29.25,80.93Zm0,2H7.5a.25.25,0,0,0-.25.25v.25a.25.25,0,0,0,.25.25H29.25a.25.25,0,0,0,.25-.25v-.25A.25.25,0,0,0,29.25,82.93Zm0,2H7.5a.25.25,0,0,0-.25.25v.25a.25.25,0,0,0,.25.25H29.25a.25.25,0,0,0,.25-.25v-.25A.25.25,0,0,0,29.25,84.93Zm0,2H7.5a.25.25,0,0,0-.25.25v.25a.25.25,0,0,0,.25.25H29.25a.25.25,0,0,0,.25-.25v-.25A.25.25,0,0,0,29.25,86.93Zm0,2H7.5a.25.25,0,0,0-.25.25v.25a.25.25,0,0,0,.25.25H29.25a.25.25,0,0,0,.25-.25v-.25A.25.25,0,0,0,29.25,88.93Zm0,2H7.5a.25.25,0,0,0-.25.25v.25a.25.25,0,0,0,.25.25H29.25a.25.25,0,0,0,.25-.25v-.25A.25.25,0,0,0,29.25,90.93Zm0,10H13.75a.25.25,0,0,0-.25.25v.25a.25.25,0,0,0,.25.25h15.5a.25.25,0,0,0,.25-.25v-.25A.25.25,0,0,0,29.25,100.93Zm0,2H13.75a.25.25,0,0,0-.25.25v.25a.25.25,0,0,0,.25.25h15.5a.25.25,0,0,0,.25-.25v-.25A.25.25,0,0,0,29.25,102.93Zm0,8.25H13.75a.25.25,0,0,0-.25.25v.25a.25.25,0,0,0,.25.25h15.5a.25.25,0,0,0,.25-.25v-.25A.25.25,0,0,0,29.25,111.18Zm0,2H13.75a.25.25,0,0,0-.25.25v.25a.25.25,0,0,0,.25.25h15.5a.25.25,0,0,0,.25-.25v-.25A.25.25,0,0,0,29.25,113.18ZM9.12,100.43A1.88,1.88,0,1,0,11,102.3,1.88,1.88,0,0,0,9.12,100.43Zm0,10.25A1.88,1.88,0,1,0,11,112.55,1.88,1.88,0,0,0,9.12,110.68Zm4.09-36c.16,0,.21-.14.12-.27l-2.11-3.06a.21.21,0,0,0-.35,0l-.81,1a.26.26,0,0,1-.39,0L9.34,72A.24.24,0,0,0,9,72L7.29,74.41c-.09.13,0,.27.12.27Zm-.34-3a.62.62,0,1,0-.63-.62A.63.63,0,0,0,12.87,71.68Z"/>
        <path class="cls-5" d="M101.75,69.93h-12a.25.25,0,0,0-.25.25v.75a.25.25,0,0,0,.25.25h12a.25.25,0,0,0,.25-.25v-.75A.25.25,0,0,0,101.75,69.93Zm0,3h-12a.25.25,0,0,0-.25.25v.25a.25.25,0,0,0,.25.25h12a.25.25,0,0,0,.25-.25v-.25A.25.25,0,0,0,101.75,72.93Zm0,2h-12a.25.25,0,0,0-.25.25v.25a.25.25,0,0,0,.25.25h12a.25.25,0,0,0,.25-.25v-.25A.25.25,0,0,0,101.75,74.93Zm0,2H80a.25.25,0,0,0-.25.25v.25a.25.25,0,0,0,.25.25h21.75a.25.25,0,0,0,.25-.25v-.25A.25.25,0,0,0,101.75,76.93Zm0,2H80a.25.25,0,0,0-.25.25v.25a.25.25,0,0,0,.25.25h21.75a.25.25,0,0,0,.25-.25v-.25A.25.25,0,0,0,101.75,78.93Zm0,2H80a.25.25,0,0,0-.25.25v.25a.25.25,0,0,0,.25.25h21.75a.25.25,0,0,0,.25-.25v-.25A.25.25,0,0,0,101.75,80.93Zm0,2H80a.25.25,0,0,0-.25.25v.25a.25.25,0,0,0,.25.25h21.75a.25.25,0,0,0,.25-.25v-.25A.25.25,0,0,0,101.75,82.93Zm0,2H80a.25.25,0,0,0-.25.25v.25a.25.25,0,0,0,.25.25h21.75a.25.25,0,0,0,.25-.25v-.25A.25.25,0,0,0,101.75,84.93Zm0,2H80a.25.25,0,0,0-.25.25v.25a.25.25,0,0,0,.25.25h21.75a.25.25,0,0,0,.25-.25v-.25A.25.25,0,0,0,101.75,86.93Zm0,2H80a.25.25,0,0,0-.25.25v.25a.25.25,0,0,0,.25.25h21.75a.25.25,0,0,0,.25-.25v-.25A.25.25,0,0,0,101.75,88.93Zm0,2H80a.25.25,0,0,0-.25.25v.25a.25.25,0,0,0,.25.25h21.75a.25.25,0,0,0,.25-.25v-.25A.25.25,0,0,0,101.75,90.93Zm0,10H86.25a.25.25,0,0,0-.25.25v.25a.25.25,0,0,0,.25.25h15.5a.25.25,0,0,0,.25-.25v-.25A.25.25,0,0,0,101.75,100.93Zm0,2H86.25a.25.25,0,0,0-.25.25v.25a.25.25,0,0,0,.25.25h15.5a.25.25,0,0,0,.25-.25v-.25A.25.25,0,0,0,101.75,102.93Zm0,8.25H86.25a.25.25,0,0,0-.25.25v.25a.25.25,0,0,0,.25.25h15.5a.25.25,0,0,0,.25-.25v-.25A.25.25,0,0,0,101.75,111.18Zm0,2H86.25a.25.25,0,0,0-.25.25v.25a.25.25,0,0,0,.25.25h15.5a.25.25,0,0,0,.25-.25v-.25A.25.25,0,0,0,101.75,113.18ZM81.62,100.43a1.88,1.88,0,1,0,1.88,1.87A1.88,1.88,0,0,0,81.62,100.43Zm0,10.25a1.88,1.88,0,1,0,1.88,1.88A1.88,1.88,0,0,0,81.62,110.68Zm4.09-36c.16,0,.21-.14.12-.27l-2.11-3.06a.21.21,0,0,0-.35,0l-.81,1a.26.26,0,0,1-.39,0L81.84,72a.24.24,0,0,0-.37,0l-1.68,2.37c-.09.13,0,.27.12.27Zm-.34-3a.62.62,0,1,0-.63-.62A.63.63,0,0,0,85.37,71.68Z"/>
        <path class="cls-5" d="M101.75,156.85h-12a.25.25,0,0,0-.25.25v.75a.25.25,0,0,0,.25.25h12a.25.25,0,0,0,.25-.25v-.75A.25.25,0,0,0,101.75,156.85Zm0,3h-12a.25.25,0,0,0-.25.25v.25a.25.25,0,0,0,.25.25h12a.25.25,0,0,0,.25-.25v-.25A.25.25,0,0,0,101.75,159.85Zm0,2h-12a.25.25,0,0,0-.25.25v.25a.25.25,0,0,0,.25.25h12a.25.25,0,0,0,.25-.25v-.25A.25.25,0,0,0,101.75,161.85Zm0,2H80a.25.25,0,0,0-.25.25v.25a.25.25,0,0,0,.25.25h21.75a.25.25,0,0,0,.25-.25v-.25A.25.25,0,0,0,101.75,163.85Zm0,2H80a.25.25,0,0,0-.25.25v.25a.25.25,0,0,0,.25.25h21.75a.25.25,0,0,0,.25-.25v-.25A.25.25,0,0,0,101.75,165.85Zm0,2H80a.25.25,0,0,0-.25.25v.25a.25.25,0,0,0,.25.25h21.75a.25.25,0,0,0,.25-.25v-.25A.25.25,0,0,0,101.75,167.85Zm0,2H80a.25.25,0,0,0-.25.25v.25a.25.25,0,0,0,.25.25h21.75a.25.25,0,0,0,.25-.25v-.25A.25.25,0,0,0,101.75,169.85Zm0,2H80a.25.25,0,0,0-.25.25v.25a.25.25,0,0,0,.25.25h21.75a.25.25,0,0,0,.25-.25v-.25A.25.25,0,0,0,101.75,171.85Zm0,2H80a.25.25,0,0,0-.25.25v.25a.25.25,0,0,0,.25.25h21.75a.25.25,0,0,0,.25-.25v-.25A.25.25,0,0,0,101.75,173.85Zm0,2H80a.25.25,0,0,0-.25.25v.25a.25.25,0,0,0,.25.25h21.75a.25.25,0,0,0,.25-.25v-.25A.25.25,0,0,0,101.75,175.85Zm0,2H80a.25.25,0,0,0-.25.25v.25a.25.25,0,0,0,.25.25h21.75a.25.25,0,0,0,.25-.25v-.25A.25.25,0,0,0,101.75,177.85Zm0,10H86.25a.25.25,0,0,0-.25.25v.25a.25.25,0,0,0,.25.25h15.5a.25.25,0,0,0,.25-.25v-.25A.25.25,0,0,0,101.75,187.85Zm0,2H86.25a.25.25,0,0,0-.25.25v.25a.25.25,0,0,0,.25.25h15.5a.25.25,0,0,0,.25-.25v-.25A.25.25,0,0,0,101.75,189.85Zm0,8.25H86.25a.25.25,0,0,0-.25.25v.25a.25.25,0,0,0,.25.25h15.5a.25.25,0,0,0,.25-.25v-.25A.25.25,0,0,0,101.75,198.1Zm0,2H86.25a.25.25,0,0,0-.25.25v.25a.25.25,0,0,0,.25.25h15.5a.25.25,0,0,0,.25-.25v-.25A.25.25,0,0,0,101.75,200.1ZM81.62,187.35a1.88,1.88,0,1,0,1.88,1.87A1.87,1.87,0,0,0,81.62,187.35Zm0,10.25a1.88,1.88,0,1,0,1.88,1.88A1.87,1.87,0,0,0,81.62,197.6Zm4.09-36c.16,0,.21-.14.12-.27l-2.11-3.06a.21.21,0,0,0-.35,0l-.81,1a.26.26,0,0,1-.39,0l-.34-.33a.24.24,0,0,0-.37,0l-1.68,2.37c-.09.13,0,.27.12.27Zm-.34-3a.62.62,0,1,0-.63-.62A.63.63,0,0,0,85.37,158.6Z"/>
        <path class="cls-5" d="M158.5,377.75l-1.57-.77a1.79,1.79,0,0,0,.7-1.41v-.94a1.51,1.51,0,0,0-3,0v.94a2,2,0,0,0,.77,1.41l-1.65.78s-.37.17-.37.38v.56a.38.38,0,0,0,.37.38h4.75a.37.37,0,0,0,.37-.38v-.56C158.88,377.91,158.5,377.75,158.5,377.75Zm4.85-32-2.21-1.08a2.47,2.47,0,0,0,1-2v-1.3a2.14,2.14,0,0,0-4.23,0v1.3a2.71,2.71,0,0,0,1.09,2l-2.32,1.08s-.53.23-.53.52V347a.53.53,0,0,0,.53.52h6.69a.53.53,0,0,0,.53-.52v-.78C163.88,346,163.35,345.74,163.35,345.74Zm11.15,32-1.57-.77a1.79,1.79,0,0,0,.7-1.41v-.94a1.51,1.51,0,0,0-3,0v.94a2,2,0,0,0,.77,1.41l-1.65.78s-.37.17-.37.38v.56a.38.38,0,0,0,.37.38h4.75a.37.37,0,0,0,.38-.38v-.56C174.88,377.91,174.5,377.75,174.5,377.75Zm16,0-1.57-.77a1.79,1.79,0,0,0,.7-1.41v-.94a1.51,1.51,0,0,0-3,0v.94a2,2,0,0,0,.77,1.41l-1.65.78s-.37.17-.37.38v.56a.38.38,0,0,0,.37.38h4.75a.37.37,0,0,0,.38-.38v-.56C190.88,377.91,190.5,377.75,190.5,377.75Z"/>
        <path class="cls-5" d="M157.63,255.08l-1.57-.77a1.79,1.79,0,0,0,.7-1.41V252a1.51,1.51,0,0,0-3,0v.94a2,2,0,0,0,.77,1.41l-1.65.78s-.37.17-.37.38V256a.37.37,0,0,0,.37.38h4.75A.37.37,0,0,0,158,256v-.56C158,255.24,157.63,255.08,157.63,255.08Zm0,17.75-1.57-.77a1.79,1.79,0,0,0,.7-1.41v-.94a1.51,1.51,0,0,0-3,0v.94a2,2,0,0,0,.77,1.41l-1.65.78s-.37.17-.37.38v.56a.37.37,0,0,0,.37.38h4.75a.37.37,0,0,0,.37-.38v-.56C158,273,157.63,272.83,157.63,272.83Zm0,17.5-1.57-.77a1.79,1.79,0,0,0,.7-1.41v-.94a1.51,1.51,0,0,0-3,0v.94a2,2,0,0,0,.77,1.41l-1.65.78s-.37.17-.37.38v.56a.38.38,0,0,0,.37.38h4.75a.37.37,0,0,0,.37-.38v-.56C158,290.48,157.63,290.33,157.63,290.33Zm16-35.25-1.57-.77a1.79,1.79,0,0,0,.7-1.41V252a1.51,1.51,0,0,0-3,0v.94a2,2,0,0,0,.77,1.41l-1.65.78s-.37.17-.37.38V256a.37.37,0,0,0,.37.38h4.75A.37.37,0,0,0,174,256v-.56C174,255.24,173.63,255.08,173.63,255.08Zm0,17.75-1.57-.77a1.79,1.79,0,0,0,.7-1.41v-.94a1.51,1.51,0,0,0-3,0v.94a2,2,0,0,0,.77,1.41l-1.65.78s-.37.17-.37.38v.56a.37.37,0,0,0,.37.38h4.75a.37.37,0,0,0,.38-.38v-.56C174,273,173.63,272.83,173.63,272.83Zm0,17.5-1.57-.77a1.79,1.79,0,0,0,.7-1.41v-.94a1.51,1.51,0,0,0-3,0v.94a2,2,0,0,0,.77,1.41l-1.65.78s-.37.17-.37.38v.56a.38.38,0,0,0,.37.38h4.75a.38.38,0,0,0,.38-.38v-.56C174,290.48,173.63,290.33,173.63,290.33Zm16-35.25-1.57-.77a1.79,1.79,0,0,0,.7-1.41V252a1.51,1.51,0,0,0-3,0v.94a2,2,0,0,0,.77,1.41l-1.65.78s-.37.17-.37.38V256a.37.37,0,0,0,.37.38h4.75A.37.37,0,0,0,190,256v-.56C190,255.24,189.62,255.08,189.62,255.08Zm0,17.75-1.57-.77a1.79,1.79,0,0,0,.7-1.41v-.94a1.51,1.51,0,0,0-3,0v.94a2,2,0,0,0,.77,1.41l-1.65.78s-.37.17-.37.38v.56a.37.37,0,0,0,.37.38h4.75a.37.37,0,0,0,.38-.38v-.56C190,273,189.62,272.83,189.62,272.83Zm0,17.5-1.57-.77a1.79,1.79,0,0,0,.7-1.41v-.94a1.51,1.51,0,0,0-3,0v.94a2,2,0,0,0,.77,1.41l-1.65.78s-.37.17-.37.38v.56a.38.38,0,0,0,.37.38h4.75a.37.37,0,0,0,.38-.38v-.56C190,290.48,189.62,290.33,189.62,290.33Z"/>
        <path class="cls-5" d="M85.38,255.08l-1.57-.77a1.79,1.79,0,0,0,.7-1.41V252a1.51,1.51,0,0,0-3,0v.94a2,2,0,0,0,.77,1.41l-1.65.78s-.37.17-.37.38V256a.37.37,0,0,0,.37.38h4.75a.37.37,0,0,0,.37-.38v-.56C85.75,255.24,85.38,255.08,85.38,255.08Zm0,17.75-1.57-.77a1.79,1.79,0,0,0,.7-1.41v-.94a1.51,1.51,0,0,0-3,0v.94a2,2,0,0,0,.77,1.41l-1.65.78s-.37.17-.37.38v.56a.37.37,0,0,0,.37.38h4.75a.37.37,0,0,0,.37-.38v-.56C85.75,273,85.38,272.83,85.38,272.83Zm0,17.5-1.57-.77a1.79,1.79,0,0,0,.7-1.41v-.94a1.51,1.51,0,0,0-3,0v.94a2,2,0,0,0,.77,1.41l-1.65.78s-.37.17-.37.38v.56a.38.38,0,0,0,.37.38h4.75a.37.37,0,0,0,.37-.38v-.56C85.75,290.48,85.38,290.33,85.38,290.33Zm16-35.25-1.57-.77a1.79,1.79,0,0,0,.7-1.41V252a1.51,1.51,0,0,0-3,0v.94a2,2,0,0,0,.77,1.41l-1.65.78s-.37.17-.37.38V256a.37.37,0,0,0,.37.38h4.75a.37.37,0,0,0,.37-.38v-.56C101.75,255.24,101.38,255.08,101.38,255.08Zm0,17.75-1.57-.77a1.79,1.79,0,0,0,.7-1.41v-.94a1.51,1.51,0,0,0-3,0v.94a2,2,0,0,0,.77,1.41l-1.65.78s-.37.17-.37.38v.56a.37.37,0,0,0,.37.38h4.75a.37.37,0,0,0,.37-.38v-.56C101.75,273,101.38,272.83,101.38,272.83Zm0,17.5-1.57-.77a1.79,1.79,0,0,0,.7-1.41v-.94a1.51,1.51,0,0,0-3,0v.94a2,2,0,0,0,.77,1.41l-1.65.78s-.37.17-.37.38v.56a.38.38,0,0,0,.37.38h4.75a.37.37,0,0,0,.37-.38v-.56C101.75,290.48,101.38,290.33,101.38,290.33Zm16-35.25-1.57-.77a1.79,1.79,0,0,0,.7-1.41V252a1.51,1.51,0,0,0-3,0v.94a2,2,0,0,0,.77,1.41l-1.65.78s-.37.17-.37.38V256a.37.37,0,0,0,.37.38h4.75a.37.37,0,0,0,.38-.38v-.56C117.75,255.24,117.37,255.08,117.37,255.08Zm0,17.75-1.57-.77a1.79,1.79,0,0,0,.7-1.41v-.94a1.51,1.51,0,0,0-3,0v.94a2,2,0,0,0,.77,1.41l-1.65.78s-.37.17-.37.38v.56a.37.37,0,0,0,.37.38h4.75a.37.37,0,0,0,.38-.38v-.56C117.75,273,117.37,272.83,117.37,272.83Zm0,17.5-1.57-.77a1.79,1.79,0,0,0,.7-1.41v-.94a1.51,1.51,0,0,0-3,0v.94a2,2,0,0,0,.77,1.41l-1.65.78s-.37.17-.37.38v.56a.38.38,0,0,0,.37.38h4.75a.37.37,0,0,0,.38-.38v-.56C117.75,290.48,117.37,290.33,117.37,290.33Z"/>
        <path class="cls-5" d="M91.12,345.89l-2.21-1.08a2.47,2.47,0,0,0,1-2v-1.3a2.14,2.14,0,0,0-4.23,0v1.3a2.71,2.71,0,0,0,1.09,2l-2.32,1.08s-.53.23-.53.52v.78a.53.53,0,0,0,.53.52h6.69a.53.53,0,0,0,.53-.52v-.78C91.65,346.11,91.12,345.89,91.12,345.89Zm-4.85,32-1.57-.77a1.79,1.79,0,0,0,.7-1.41v-.94a1.51,1.51,0,0,0-3,0v.94a2,2,0,0,0,.77,1.41l-1.65.78s-.37.17-.37.38v.56a.38.38,0,0,0,.37.38h4.75a.38.38,0,0,0,.38-.38v-.56C86.65,378.06,86.28,377.91,86.28,377.91Zm16,0-1.57-.77a1.79,1.79,0,0,0,.7-1.41v-.94a1.51,1.51,0,0,0-3,0v.94a2,2,0,0,0,.77,1.41l-1.65.78s-.37.17-.37.38v.56a.38.38,0,0,0,.37.38h4.75a.37.37,0,0,0,.38-.38v-.56C102.65,378.06,102.28,377.91,102.28,377.91Zm16,0-1.57-.77a1.79,1.79,0,0,0,.7-1.41v-.94a1.51,1.51,0,0,0-3,0v.94a2,2,0,0,0,.77,1.41l-1.65.78s-.37.17-.37.38v.56a.37.37,0,0,0,.37.38h4.75a.37.37,0,0,0,.38-.38v-.56C118.65,378.06,118.28,377.91,118.28,377.91Z"/>
        <g>
          <path class="cls-5" d="M6.77,168.1h3.71c.1,0,.14-.09.08-.17l-1.35-2a.13.13,0,0,0-.22,0l-.52.63a.16.16,0,0,1-.25,0L8,166.37a.15.15,0,0,0-.24,0l-1.07,1.53C6.63,168,6.67,168.1,6.77,168.1Z"/>
          <path class="cls-5" d="M6.77,179.85h3.71c.1,0,.14-.09.08-.17l-1.35-2a.13.13,0,0,0-.22,0l-.52.63a.16.16,0,0,1-.25,0L8,178.12a.15.15,0,0,0-.24,0l-1.07,1.53C6.63,179.76,6.67,179.85,6.77,179.85Z"/>
          <circle class="cls-5" cx="10.41" cy="177.35" r="0.5"/>
          <circle class="cls-5" cx="10.41" cy="165.6" r="0.5"/>
          <circle class="cls-5" cx="10.41" cy="189.1" r="0.5"/>
          <path class="cls-5" d="M9.2,189.44a.13.13,0,0,0-.22,0l-.52.63a.16.16,0,0,1-.25,0L8,189.86a.15.15,0,0,0-.24,0l-1.07,1.53c-.06.08,0,.17.08.17h3.71c.1,0,.14-.09.08-.17Z"/>
        </g>
        <path class="cls-7" d="M28.66,176.35h-12a.25.25,0,0,0-.25.25v.75a.25.25,0,0,0,.25.25h12a.25.25,0,0,0,.25-.25v-.75A.25.25,0,0,0,28.66,176.35Zm0,2.5h-12a.25.25,0,0,0-.25.25v.75a.25.25,0,0,0,.25.25h12a.25.25,0,0,0,.25-.25v-.75A.25.25,0,0,0,28.66,178.85Zm0,9.25h-12a.25.25,0,0,0-.25.25v.75a.25.25,0,0,0,.25.25h12a.25.25,0,0,0,.25-.25v-.75A.25.25,0,0,0,28.66,188.1Zm0-21h-12a.25.25,0,0,0-.25.25v.75a.25.25,0,0,0,.25.25h12a.25.25,0,0,0,.25-.25v-.75A.25.25,0,0,0,28.66,167.1Zm0,23.5h-12a.25.25,0,0,0-.25.25v.75a.25.25,0,0,0,.25.25h12a.25.25,0,0,0,.25-.25v-.75A.25.25,0,0,0,28.66,190.6Zm0-26h-12a.25.25,0,0,0-.25.25v.75a.25.25,0,0,0,.25.25h12a.25.25,0,0,0,.25-.25v-.75A.25.25,0,0,0,28.66,164.6Zm18.25,23a2.5,2.5,0,1,0,2.5,2.5A2.5,2.5,0,0,0,46.91,187.6Zm.93,3.42a.26.26,0,0,1-.37,0l-.56-.56-.56.56a.26.26,0,0,1-.37-.37l.56-.56-.55-.55a.26.26,0,0,1,.37-.37l.55.55.55-.55a.26.26,0,0,1,.37.37l-.55.55.56.56A.26.26,0,0,1,47.84,191Zm-.93-15.17a2.5,2.5,0,1,0,2.5,2.5A2.5,2.5,0,0,0,46.91,175.85Zm.93,3.42a.26.26,0,0,1-.37,0l-.56-.56-.56.56a.26.26,0,0,1-.37-.37l.56-.56-.55-.55a.26.26,0,1,1,.37-.37l.55.55.55-.55a.26.26,0,1,1,.37.37l-.55.55.56.56A.26.26,0,0,1,47.84,179.27Zm-.93-10.17a2.5,2.5,0,1,0-2.5-2.5A2.5,2.5,0,0,0,46.91,169.1ZM46,166a.26.26,0,0,1,.37-.37l.55.55.55-.55a.26.26,0,0,1,.37.37l-.55.55.56.56a.26.26,0,0,1-.37.37l-.56-.56-.56.56a.26.26,0,0,1-.37-.37l.56-.56Zm2.42,32.56H39.16a1,1,0,0,0-1,1v3a1,1,0,0,0,1,1h9.25a1,1,0,0,0,1-1v-3A1,1,0,0,0,48.41,198.6Z"/>
        <g>
          <path class="cls-5" d="M80,439.29h3.71c.1,0,.14-.09.08-.17l-1.35-2a.13.13,0,0,0-.22,0l-.52.63a.16.16,0,0,1-.25,0l-.22-.21a.15.15,0,0,0-.24,0l-1.07,1.53C79.87,439.2,79.91,439.29,80,439.29Z"/>
          <path class="cls-5" d="M80,451h3.71c.1,0,.14-.09.08-.17l-1.35-2a.13.13,0,0,0-.22,0l-.52.63a.16.16,0,0,1-.25,0l-.22-.21a.15.15,0,0,0-.24,0l-1.07,1.53C79.87,451,79.91,451,80,451Z"/>
          <circle class="cls-5" cx="83.65" cy="448.55" r="0.5"/>
          <circle class="cls-5" cx="83.65" cy="436.8" r="0.5"/>
          <circle class="cls-5" cx="83.65" cy="460.3" r="0.5"/>
          <path class="cls-5" d="M82.44,460.64a.13.13,0,0,0-.22,0l-.52.63a.16.16,0,0,1-.25,0l-.22-.21a.15.15,0,0,0-.24,0l-1.07,1.53c-.06.08,0,.17.08.17h3.71c.1,0,.14-.09.08-.17Z"/>
        </g>
        <path class="cls-7" d="M101.9,459.29h-12a.25.25,0,0,0-.25.25v.75a.25.25,0,0,0,.25.25h12a.25.25,0,0,0,.25-.25v-.75A.25.25,0,0,0,101.9,459.29Zm0-11.75h-12a.25.25,0,0,0-.25.25v.75a.25.25,0,0,0,.25.25h12a.25.25,0,0,0,.25-.25v-.75A.25.25,0,0,0,101.9,447.54Zm0,2.5h-12a.25.25,0,0,0-.25.25V451a.25.25,0,0,0,.25.25h12a.25.25,0,0,0,.25-.25v-.75A.25.25,0,0,0,101.9,450Zm0,11.75h-12a.25.25,0,0,0-.25.25v.75a.25.25,0,0,0,.25.25h12a.25.25,0,0,0,.25-.25V462A.25.25,0,0,0,101.9,461.79Zm18.25-21.5a2.5,2.5,0,1,0-2.5-2.5A2.5,2.5,0,0,0,120.15,440.29Zm-.92-3.06a.26.26,0,0,1,.37-.37l.55.55.55-.55a.26.26,0,0,1,.37.37l-.55.55.56.56a.26.26,0,0,1-.37.37l-.56-.56-.56.56a.26.26,0,0,1-.37-.37l.56-.56Zm-17.33,1.06h-12a.25.25,0,0,0-.25.25v.75a.25.25,0,0,0,.25.25h12a.25.25,0,0,0,.25-.25v-.75A.25.25,0,0,0,101.9,438.29Zm0-2.5h-12a.25.25,0,0,0-.25.25v.75a.25.25,0,0,0,.25.25h12a.25.25,0,0,0,.25-.25V436A.25.25,0,0,0,101.9,435.79Zm18.25,23a2.5,2.5,0,1,0,2.5,2.5A2.5,2.5,0,0,0,120.15,458.79Zm.93,3.42a.26.26,0,0,1-.37,0l-.56-.56-.56.56a.26.26,0,0,1-.37-.37l.56-.56-.55-.55a.26.26,0,0,1,.37-.37l.55.55.55-.55a.26.26,0,0,1,.37.37l-.55.55.56.56A.26.26,0,0,1,121.08,462.21ZM120.15,447a2.5,2.5,0,1,0,2.5,2.5A2.5,2.5,0,0,0,120.15,447Zm.93,3.42a.26.26,0,0,1-.37,0l-.56-.56-.56.56a.26.26,0,1,1-.37-.37l.56-.56-.55-.55a.26.26,0,0,1,.37-.37l.55.55.55-.55a.26.26,0,0,1,.37.37l-.55.55.56.56A.26.26,0,0,1,121.08,450.46Zm.57,19.33H112.4a1,1,0,0,0-1,1v3a1,1,0,0,0,1,1h9.25a1,1,0,0,0,1-1v-3A1,1,0,0,0,121.65,469.79Z"/>
        <g>
          <path class="cls-5" d="M153.09,439.29h3.71c.1,0,.14-.09.08-.17l-1.35-2a.13.13,0,0,0-.22,0l-.52.63a.16.16,0,0,1-.25,0l-.22-.21a.15.15,0,0,0-.24,0L153,439.12C153,439.2,153,439.29,153.09,439.29Z"/>
          <path class="cls-5" d="M153.09,451h3.71c.1,0,.14-.09.08-.17l-1.35-2a.13.13,0,0,0-.22,0l-.52.63a.16.16,0,0,1-.25,0l-.22-.21a.15.15,0,0,0-.24,0L153,450.87C153,451,153,451,153.09,451Z"/>
          <circle class="cls-5" cx="156.74" cy="448.55" r="0.5"/>
          <circle class="cls-5" cx="156.74" cy="436.8" r="0.5"/>
          <circle class="cls-5" cx="156.74" cy="460.3" r="0.5"/>
          <path class="cls-5" d="M155.53,460.64a.13.13,0,0,0-.22,0l-.52.63a.16.16,0,0,1-.25,0l-.22-.21a.15.15,0,0,0-.24,0L153,462.62c-.06.08,0,.17.08.17h3.71c.1,0,.14-.09.08-.17Z"/>
        </g>
        <path class="cls-7" d="M175,450H163a.25.25,0,0,0-.25.25V451a.25.25,0,0,0,.25.25h12a.25.25,0,0,0,.25-.25v-.75A.25.25,0,0,0,175,450Zm0-2.5H163a.25.25,0,0,0-.25.25v.75a.25.25,0,0,0,.25.25h12a.25.25,0,0,0,.25-.25v-.75A.25.25,0,0,0,175,447.54Zm0,11.75H163a.25.25,0,0,0-.25.25v.75a.25.25,0,0,0,.25.25h12a.25.25,0,0,0,.25-.25v-.75A.25.25,0,0,0,175,459.29Zm0-21H163a.25.25,0,0,0-.25.25v.75a.25.25,0,0,0,.25.25h12a.25.25,0,0,0,.25-.25v-.75A.25.25,0,0,0,175,438.29Zm18.25,2a2.5,2.5,0,1,0-2.5-2.5A2.5,2.5,0,0,0,193.24,440.29Zm-.92-3.06a.26.26,0,0,1,.37-.37l.55.55.55-.55a.26.26,0,0,1,.37.37l-.55.55.56.56a.26.26,0,0,1-.37.37l-.56-.56-.56.56a.26.26,0,0,1-.37-.37l.56-.56ZM175,461.79H163a.25.25,0,0,0-.25.25v.75a.25.25,0,0,0,.25.25h12a.25.25,0,0,0,.25-.25V462A.25.25,0,0,0,175,461.79ZM193.24,447a2.5,2.5,0,1,0,2.5,2.5A2.5,2.5,0,0,0,193.24,447Zm.93,3.42a.26.26,0,0,1-.37,0l-.56-.56-.56.56a.26.26,0,1,1-.37-.37l.56-.56-.55-.55a.26.26,0,0,1,.37-.37l.55.55.55-.55a.26.26,0,0,1,.37.37l-.55.55.56.56A.26.26,0,0,1,194.16,450.46Zm-.93,8.33a2.5,2.5,0,1,0,2.5,2.5A2.5,2.5,0,0,0,193.24,458.79Zm.93,3.42a.26.26,0,0,1-.37,0l-.56-.56-.56.56a.26.26,0,0,1-.37-.37l.56-.56-.55-.55a.26.26,0,0,1,.37-.37l.55.55.55-.55a.26.26,0,0,1,.37.37l-.55.55.56.56A.26.26,0,0,1,194.16,462.21Zm.57,7.58h-9.25a1,1,0,0,0-1,1v3a1,1,0,0,0,1,1h9.25a1,1,0,0,0,1-1v-3A1,1,0,0,0,194.74,469.79Zm-19.75-34H163a.25.25,0,0,0-.25.25v.75a.25.25,0,0,0,.25.25h12a.25.25,0,0,0,.25-.25V436A.25.25,0,0,0,175,435.79Z"/>
      </g>
      <path class="cls-2" d="M197.49,414h-49a2,2,0,0,0-2,2v60.5a2,2,0,0,0,2,2h49a2,2,0,0,0,2-2V416A2,2,0,0,0,197.49,414Zm1.5,62.5a1.5,1.5,0,0,1-1.5,1.5h-49a1.5,1.5,0,0,1-1.5-1.5V416a1.5,1.5,0,0,1,1.5-1.5h49A1.5,1.5,0,0,1,199,416Z"/>
    </g>
    <g id="Layer_2-2" data-name="Layer 2">
      <g>
        <g>
          <path class="cls-5" d="M90.56,147a.81.81,0,0,1,.31.05.58.58,0,0,1,.21.14.54.54,0,0,1,.12.2.74.74,0,0,1,0,.46.53.53,0,0,1-.12.2.58.58,0,0,1-.21.14.81.81,0,0,1-.31.05h-.45V149h-.42V147Zm-.12.91h.14l.12,0a.22.22,0,0,0,.08-.09.37.37,0,0,0,0-.3.23.23,0,0,0-.08-.09l-.12,0h-.47v.58Z"/>
          <path class="cls-5" d="M92.53,147a.62.62,0,0,1,.23,0,.54.54,0,0,1,.18.11.5.5,0,0,1,.11.17.54.54,0,0,1,0,.21.58.58,0,0,1-.07.29.45.45,0,0,1-.23.19h0a.33.33,0,0,1,.13.07.37.37,0,0,1,.08.11.5.5,0,0,1,0,.13,1.25,1.25,0,0,1,0,.15v.11s0,.08,0,.13a.87.87,0,0,0,0,.12.29.29,0,0,0,0,.1h-.43a.75.75,0,0,1,0-.22c0-.08,0-.17,0-.24a.39.39,0,0,0-.09-.22.32.32,0,0,0-.23-.07h-.42V149h-.42V147Zm-.15.87a.32.32,0,0,0,.22-.06.27.27,0,0,0,.07-.21.26.26,0,0,0-.07-.2.33.33,0,0,0-.22-.06h-.47v.54Z"/>
          <path class="cls-5" d="M93.43,147.6a1,1,0,0,1,.19-.32.86.86,0,0,1,.3-.22,1.06,1.06,0,0,1,.8,0,.86.86,0,0,1,.3.22,1,1,0,0,1,.19.32,1.21,1.21,0,0,1,.06.4,1.16,1.16,0,0,1-.06.39.94.94,0,0,1-.19.32.87.87,0,0,1-.3.21,1.08,1.08,0,0,1-.8,0,.87.87,0,0,1-.3-.21.94.94,0,0,1-.19-.32,1.16,1.16,0,0,1-.06-.39A1.21,1.21,0,0,1,93.43,147.6Zm.39.64a.64.64,0,0,0,.09.21.47.47,0,0,0,.16.15.56.56,0,0,0,.49,0,.47.47,0,0,0,.16-.15.64.64,0,0,0,.09-.21,1,1,0,0,0,0-.24,1.05,1.05,0,0,0,0-.25.65.65,0,0,0-.09-.21.46.46,0,0,0-.16-.15.56.56,0,0,0-.49,0,.46.46,0,0,0-.16.15.65.65,0,0,0-.09.21,1.05,1.05,0,0,0,0,.25A1,1,0,0,0,93.82,148.24Z"/>
          <path class="cls-5" d="M96.39,147a1,1,0,0,1,.35.06.75.75,0,0,1,.28.18.82.82,0,0,1,.18.3,1.2,1.2,0,0,1,.07.42,1.34,1.34,0,0,1-.05.39.86.86,0,0,1-.16.31.78.78,0,0,1-.27.2.93.93,0,0,1-.39.07h-.83V147Zm0,1.58a.54.54,0,0,0,.18,0,.39.39,0,0,0,.15-.1.5.5,0,0,0,.11-.18.8.8,0,0,0,0-.27,1.15,1.15,0,0,0,0-.26.53.53,0,0,0-.09-.2.41.41,0,0,0-.17-.13.69.69,0,0,0-.26,0H96v1.22Z"/>
          <path class="cls-5" d="M99,148.81a1.06,1.06,0,0,1-1.21,0,.74.74,0,0,1-.22-.58V147H98v1.2a.85.85,0,0,0,0,.15.31.31,0,0,0,.06.13.32.32,0,0,0,.12.09.49.49,0,0,0,.21,0,.4.4,0,0,0,.31-.1.49.49,0,0,0,.09-.32V147h.42v1.2A.73.73,0,0,1,99,148.81Z"/>
          <path class="cls-5" d="M100.8,147.54a.42.42,0,0,0-.09-.11l-.13-.07-.15,0a.49.49,0,0,0-.24.06.46.46,0,0,0-.16.15.65.65,0,0,0-.09.21,1.05,1.05,0,0,0,0,.25,1,1,0,0,0,0,.24.64.64,0,0,0,.09.21.47.47,0,0,0,.16.15.49.49,0,0,0,.24.06.39.39,0,0,0,.3-.12.55.55,0,0,0,.13-.31h.41a1,1,0,0,1-.08.33.77.77,0,0,1-.18.25.75.75,0,0,1-.26.16,1,1,0,0,1-.33.05,1,1,0,0,1-.4-.08.87.87,0,0,1-.3-.21.94.94,0,0,1-.19-.32,1.16,1.16,0,0,1-.06-.39,1.21,1.21,0,0,1,.06-.4,1,1,0,0,1,.19-.32.86.86,0,0,1,.3-.22,1,1,0,0,1,.7,0,.82.82,0,0,1,.25.13.72.72,0,0,1,.19.22.78.78,0,0,1,.09.3h-.41A.35.35,0,0,0,100.8,147.54Z"/>
          <path class="cls-5" d="M101.42,147.38V147H103v.36h-.58V149H102v-1.58Z"/>
          <path class="cls-5" d="M103.65,147V149h-.42V147Z"/>
          <path class="cls-5" d="M104,147.6a1,1,0,0,1,.19-.32.86.86,0,0,1,.3-.22,1.06,1.06,0,0,1,.8,0,.86.86,0,0,1,.3.22,1,1,0,0,1,.19.32,1.21,1.21,0,0,1,.06.4,1.16,1.16,0,0,1-.06.39.94.94,0,0,1-.19.32.87.87,0,0,1-.3.21,1.08,1.08,0,0,1-.8,0,.87.87,0,0,1-.3-.21.94.94,0,0,1-.19-.32,1.16,1.16,0,0,1-.06-.39A1.21,1.21,0,0,1,104,147.6Zm.39.64a.64.64,0,0,0,.09.21.47.47,0,0,0,.16.15.56.56,0,0,0,.49,0,.47.47,0,0,0,.16-.15.64.64,0,0,0,.09-.21,1,1,0,0,0,0-.24,1.05,1.05,0,0,0,0-.25.65.65,0,0,0-.09-.21.46.46,0,0,0-.16-.15.56.56,0,0,0-.49,0,.46.46,0,0,0-.16.15.65.65,0,0,0-.09.21,1.05,1.05,0,0,0,0,.25A1,1,0,0,0,104.39,148.24Z"/>
          <path class="cls-5" d="M106.55,147l.81,1.3h0V147h.4V149h-.42l-.8-1.29h0V149h-.4V147Z"/>
        </g>
        <path class="cls-5" d="M170.94,328a.47.47,0,0,0,.15-.11.44.44,0,0,0,.09-.29.5.5,0,0,0-.09-.3.61.61,0,0,0-.51-.21h-1v2h.89l.28,0a.54.54,0,0,0,.36-.26.58.58,0,0,0,.09-.32.52.52,0,0,0-.08-.29A.44.44,0,0,0,170.94,328Zm-.92-.57h.43a.75.75,0,0,1,.23,0,.18.18,0,0,1,.11.18.19.19,0,0,1-.08.17.4.4,0,0,1-.21,0H170Zm.68,1.26a.47.47,0,0,1-.2,0H170v-.53h.49a.5.5,0,0,1,.2,0,.21.21,0,0,1,.13.21A.25.25,0,0,1,170.7,328.73Zm1,.38h.41v-2h-.41Zm2.46-1.81a1,1,0,0,0-1.3,0,1,1,0,0,0-.3.82,1.07,1.07,0,0,0,.3.82,1,1,0,0,0,1.3,0,1.07,1.07,0,0,0,.3-.82A1,1,0,0,0,174.17,327.3Zm-.26,1.33a.47.47,0,0,1-.39.18.48.48,0,0,1-.39-.18,1,1,0,0,1,0-1,.48.48,0,0,1,.39-.18.47.47,0,0,1,.39.18,1,1,0,0,1,0,1Z"/>
        <path class="cls-5" d="M95.08,240.05h.59v1.63h.42v-1.63h.59v-.35h-1.6Zm2.4.76h1v-.34h-1v-.42h1v-.35H97.07v2h1.5v-.36h-1.1Zm2.12-1.11-.71,2h.43l.13-.41h.73l.13.41h.45l-.7-2Zm0,1.23.26-.78.25.78Zm2.9-1.23-.36,1.56-.36-1.56h-.6v2h.39v-1.34s0-.09,0-.16,0-.12,0-.16l.37,1.66h.4l.38-1.66s0,.09,0,.16,0,.12,0,.16v1.34h.39v-2Z"/>
        <path class="cls-5" d="M98.72,328.2a.47.47,0,0,0,.15-.11.44.44,0,0,0,.09-.29.5.5,0,0,0-.09-.3.61.61,0,0,0-.51-.21h-1v2h.89l.28,0a.54.54,0,0,0,.36-.26.58.58,0,0,0,.09-.32.52.52,0,0,0-.08-.29A.44.44,0,0,0,98.72,328.2Zm-.92-.57h.43a.75.75,0,0,1,.23,0,.18.18,0,0,1,.11.18.19.19,0,0,1-.08.17.4.4,0,0,1-.21,0H97.8Zm.68,1.26a.47.47,0,0,1-.2,0H97.8v-.53h.49a.5.5,0,0,1,.2,0,.21.21,0,0,1,.13.21A.25.25,0,0,1,98.48,328.88Zm1,.38h.41v-2h-.41Zm2.46-1.81a1,1,0,0,0-1.3,0,1,1,0,0,0-.3.82,1.07,1.07,0,0,0,.3.82,1,1,0,0,0,1.3,0,1.07,1.07,0,0,0,.3-.82A1,1,0,0,0,101.94,327.45Zm-.26,1.33a.47.47,0,0,1-.39.18.48.48,0,0,1-.39-.18,1,1,0,0,1,0-1,.48.48,0,0,1,.39-.18.47.47,0,0,1,.39.18,1,1,0,0,1,0,1Z"/>
        <g>
          <path class="cls-5" d="M166.68,239.71l.74,2H167l-.15-.44h-.74l-.15.44h-.44l.75-2Zm0,1.21-.25-.72h0l-.26.72Z"/>
          <path class="cls-5" d="M168.85,240.23a.44.44,0,0,0-.1-.11l-.13-.07-.15,0a.51.51,0,0,0-.25.06.47.47,0,0,0-.17.15.67.67,0,0,0-.09.22,1.08,1.08,0,0,0,0,.25,1,1,0,0,0,0,.24.65.65,0,0,0,.09.21.47.47,0,0,0,.17.15.51.51,0,0,0,.25.06.4.4,0,0,0,.31-.12.56.56,0,0,0,.14-.32h.42a1,1,0,0,1-.09.33.8.8,0,0,1-.18.25.78.78,0,0,1-.27.16,1,1,0,0,1-.33.06,1,1,0,0,1-.41-.08.88.88,0,0,1-.31-.22,1,1,0,0,1-.19-.32,1.19,1.19,0,0,1-.07-.4,1.23,1.23,0,0,1,.07-.41,1,1,0,0,1,.19-.33.87.87,0,0,1,.31-.22,1.06,1.06,0,0,1,.72,0,.84.84,0,0,1,.26.14.74.74,0,0,1,.19.22.79.79,0,0,1,.09.3h-.42A.36.36,0,0,0,168.85,240.23Z"/>
          <path class="cls-5" d="M169.48,240.07v-.37h1.62v.37h-.59v1.61h-.43v-1.61Z"/>
          <path class="cls-5" d="M171.31,240.29a1,1,0,0,1,.19-.33.87.87,0,0,1,.31-.22,1.08,1.08,0,0,1,.82,0,.88.88,0,0,1,.3.22,1,1,0,0,1,.19.33,1.23,1.23,0,0,1,.07.41,1.19,1.19,0,0,1-.07.4,1,1,0,0,1-.19.32.88.88,0,0,1-.3.22,1.1,1.1,0,0,1-.82,0,.88.88,0,0,1-.31-.22,1,1,0,0,1-.19-.32,1.19,1.19,0,0,1-.07-.4A1.23,1.23,0,0,1,171.31,240.29Zm.4.65a.65.65,0,0,0,.09.21.47.47,0,0,0,.17.15.57.57,0,0,0,.5,0,.48.48,0,0,0,.17-.15.65.65,0,0,0,.09-.21,1,1,0,0,0,0-.24,1.08,1.08,0,0,0,0-.25.67.67,0,0,0-.09-.22.47.47,0,0,0-.17-.15.57.57,0,0,0-.5,0,.47.47,0,0,0-.17.15.67.67,0,0,0-.09.22,1.08,1.08,0,0,0,0,.25A1,1,0,0,0,171.7,240.94Z"/>
          <path class="cls-5" d="M174.54,239.71a.64.64,0,0,1,.24,0,.55.55,0,0,1,.18.12.51.51,0,0,1,.12.17.56.56,0,0,1,0,.21.59.59,0,0,1-.07.3.46.46,0,0,1-.24.19h0a.33.33,0,0,1,.13.07.37.37,0,0,1,.09.11.5.5,0,0,1,0,.14,1.19,1.19,0,0,1,0,.15v.11s0,.09,0,.13a.87.87,0,0,0,0,.13.29.29,0,0,0,0,.1h-.43a.76.76,0,0,1,0-.22q0-.13,0-.25a.39.39,0,0,0-.09-.23.32.32,0,0,0-.24-.07h-.43v.77h-.43v-2Zm-.15.89a.33.33,0,0,0,.22-.07.28.28,0,0,0,.07-.22.26.26,0,0,0-.07-.21.33.33,0,0,0-.22-.07h-.48v.56Z"/>
          <path class="cls-5" d="M175.81,241.19a.31.31,0,0,0,.1.11.41.41,0,0,0,.14.06l.17,0h.12l.12,0a.27.27,0,0,0,.1-.08.19.19,0,0,0,0-.12.17.17,0,0,0-.05-.13.41.41,0,0,0-.13-.08l-.19-.06-.21-.06-.22-.07a.74.74,0,0,1-.19-.1.49.49,0,0,1-.13-.16.48.48,0,0,1-.05-.23.52.52,0,0,1,.06-.26.59.59,0,0,1,.17-.19.74.74,0,0,1,.24-.11,1,1,0,0,1,.27,0,1.25,1.25,0,0,1,.3,0,.74.74,0,0,1,.25.11.57.57,0,0,1,.18.2.61.61,0,0,1,.06.29h-.42a.35.35,0,0,0,0-.15.24.24,0,0,0-.08-.09l-.12,0H176l-.1,0-.07.07a.19.19,0,0,0,0,.11.18.18,0,0,0,0,.09.2.2,0,0,0,.09.07l.18.06.3.08.15,0a.74.74,0,0,1,.19.09.59.59,0,0,1,.17.17.48.48,0,0,1,.07.27.6.6,0,0,1-.05.25.55.55,0,0,1-.16.2.75.75,0,0,1-.26.13,1.21,1.21,0,0,1-.36,0,1.25,1.25,0,0,1-.32,0,.79.79,0,0,1-.27-.13.62.62,0,0,1-.19-.22.65.65,0,0,1-.07-.32h.42A.36.36,0,0,0,175.81,241.19Z"/>
        </g>
        <g>
          <path class="cls-5" d="M21.28,60.53l.45,1.33h0l.43-1.33h.6v1.93h-.4V61.09h0l-.47,1.37h-.33l-.47-1.36h0v1.36h-.4V60.53Z"/>
          <path class="cls-5" d="M23.56,60.53v1.93h-.42V60.53Z"/>
          <path class="cls-5" d="M24.26,62a.3.3,0,0,0,.09.11.4.4,0,0,0,.14.06l.16,0h.12l.12,0a.27.27,0,0,0,.1-.07.19.19,0,0,0,0-.12.17.17,0,0,0,0-.13.39.39,0,0,0-.13-.08l-.18-.06-.21-.05-.21-.07a.73.73,0,0,1-.18-.1.48.48,0,0,1-.13-.16.47.47,0,0,1-.05-.23.5.5,0,0,1,.06-.26.58.58,0,0,1,.17-.18.74.74,0,0,1,.23-.11,1,1,0,0,1,.26,0,1.23,1.23,0,0,1,.29,0,.73.73,0,0,1,.25.11.55.55,0,0,1,.17.19.59.59,0,0,1,.06.29H25a.33.33,0,0,0,0-.14.24.24,0,0,0-.08-.09l-.12,0h-.25l-.09,0-.07.07a.18.18,0,0,0,0,.1.17.17,0,0,0,0,.09.19.19,0,0,0,.09.07l.18.06.29.08.15,0a.72.72,0,0,1,.19.09.57.57,0,0,1,.16.17.47.47,0,0,1,.07.27.58.58,0,0,1-.05.25.53.53,0,0,1-.15.2.72.72,0,0,1-.25.13,1.19,1.19,0,0,1-.35,0,1.21,1.21,0,0,1-.31,0,.77.77,0,0,1-.27-.12.6.6,0,0,1-.18-.21.64.64,0,0,1-.06-.31h.41A.35.35,0,0,0,24.26,62Z"/>
          <path class="cls-5" d="M26,62a.3.3,0,0,0,.09.11.4.4,0,0,0,.14.06l.16,0h.12l.12,0a.27.27,0,0,0,.1-.07.19.19,0,0,0,0-.12.17.17,0,0,0,0-.13.39.39,0,0,0-.13-.08l-.18-.06-.21-.05L26,61.55a.73.73,0,0,1-.18-.1.48.48,0,0,1-.13-.16.47.47,0,0,1-.05-.23.5.5,0,0,1,.06-.26.58.58,0,0,1,.17-.18.74.74,0,0,1,.23-.11,1,1,0,0,1,.26,0,1.23,1.23,0,0,1,.29,0,.73.73,0,0,1,.25.11.55.55,0,0,1,.17.19.59.59,0,0,1,.06.29h-.41a.33.33,0,0,0,0-.14.24.24,0,0,0-.08-.09l-.12,0h-.25l-.09,0-.07.07a.18.18,0,0,0,0,.1.17.17,0,0,0,0,.09.19.19,0,0,0,.09.07l.18.06.29.08.15,0a.72.72,0,0,1,.19.09.57.57,0,0,1,.16.17.47.47,0,0,1,.07.27.58.58,0,0,1-.05.25.53.53,0,0,1-.15.2.72.72,0,0,1-.25.13,1.19,1.19,0,0,1-.35,0,1.21,1.21,0,0,1-.31,0,.77.77,0,0,1-.27-.12.6.6,0,0,1-.18-.21.64.64,0,0,1-.06-.31H26A.35.35,0,0,0,26,62Z"/>
          <path class="cls-5" d="M27.88,60.53v1.93h-.42V60.53Z"/>
          <path class="cls-5" d="M28.23,61.1a1,1,0,0,1,.19-.32.86.86,0,0,1,.3-.22,1.06,1.06,0,0,1,.8,0,.86.86,0,0,1,.3.22,1,1,0,0,1,.19.32,1.21,1.21,0,0,1,.06.4,1.16,1.16,0,0,1-.06.39.94.94,0,0,1-.19.32.87.87,0,0,1-.3.21,1.08,1.08,0,0,1-.8,0,.87.87,0,0,1-.3-.21.94.94,0,0,1-.19-.32,1.16,1.16,0,0,1-.06-.39A1.21,1.21,0,0,1,28.23,61.1Zm.39.64a.64.64,0,0,0,.09.21.47.47,0,0,0,.16.15.56.56,0,0,0,.49,0,.47.47,0,0,0,.16-.15.64.64,0,0,0,.09-.21,1,1,0,0,0,0-.24,1.05,1.05,0,0,0,0-.25.65.65,0,0,0-.09-.21.46.46,0,0,0-.16-.15.56.56,0,0,0-.49,0,.46.46,0,0,0-.16.15.65.65,0,0,0-.09.21,1.05,1.05,0,0,0,0,.25A1,1,0,0,0,28.62,61.74Z"/>
          <path class="cls-5" d="M30.78,60.53l.81,1.3h0v-1.3H32v1.93h-.42l-.8-1.29h0v1.29h-.4V60.53Z"/>
        </g>
        <g>
          <path class="cls-5" d="M88.91,60.39V60h1.58v.36h-.58V62h-.43V60.39Z"/>
          <path class="cls-5" d="M91.14,60v.74h.78V60h.42V62h-.42v-.83h-.78V62h-.42V60Z"/>
          <path class="cls-5" d="M94.17,60v.36h-1v.41h.94v.33h-.94v.47h1V62H92.72V60Z"/>
          <path class="cls-5" d="M95.08,60.39V60h1.58v.36h-.58V62h-.43V60.39Z"/>
          <path class="cls-5" d="M97.31,60v.74h.78V60h.42V62h-.42v-.83h-.78V62h-.42V60Z"/>
          <path class="cls-5" d="M100.33,60v.36h-1v.41h.94v.33h-.94v.47h1V62H98.89V60Z"/>
          <path class="cls-5" d="M101.61,60l.72,1.93h-.44l-.15-.43H101l-.15.43h-.43l.73-1.93Zm0,1.19-.24-.71h0l-.25.71Z"/>
          <path class="cls-5" d="M102.1,60.39V60h1.58v.36h-.58V62h-.43V60.39Z"/>
          <path class="cls-5" d="M104.94,60a.62.62,0,0,1,.23,0,.54.54,0,0,1,.18.11.5.5,0,0,1,.11.17.54.54,0,0,1,0,.21.58.58,0,0,1-.07.29.45.45,0,0,1-.23.19h0a.33.33,0,0,1,.13.07.37.37,0,0,1,.08.11.5.5,0,0,1,0,.13,1.25,1.25,0,0,1,0,.15v.11s0,.08,0,.13a.87.87,0,0,0,0,.12.29.29,0,0,0,0,.1h-.43a.75.75,0,0,1,0-.22c0-.08,0-.17,0-.24a.39.39,0,0,0-.09-.22.32.32,0,0,0-.23-.07h-.42V62h-.42V60Zm-.15.87a.32.32,0,0,0,.22-.06.27.27,0,0,0,.07-.21.26.26,0,0,0-.07-.2.33.33,0,0,0-.22-.06h-.47v.54Z"/>
          <path class="cls-5" d="M107.3,60v.36h-1v.41h.94v.33h-.94v.47h1V62h-1.47V60Z"/>
        </g>
        <g>
          <path class="cls-5" d="M92,13.77l1.33,3.57h-.81l-.27-.79H90.91l-.28.79h-.79l1.35-3.57ZM92,16l-.45-1.31h0L91.12,16Z"/>
          <path class="cls-5" d="M95.32,13.77a2.21,2.21,0,0,1,.47,0,1,1,0,0,1,.36.15.69.69,0,0,1,.23.27,1,1,0,0,1,.08.42.78.78,0,0,1-.12.45.89.89,0,0,1-.36.29.86.86,0,0,1,.49.33,1.09,1.09,0,0,1,.06,1,.9.9,0,0,1-.28.32,1.24,1.24,0,0,1-.4.19,1.83,1.83,0,0,1-.47.06H93.64V13.77Zm-.1,1.44a.56.56,0,0,0,.35-.1.38.38,0,0,0,.13-.32.41.41,0,0,0,0-.21.33.33,0,0,0-.12-.12.51.51,0,0,0-.17-.06l-.2,0h-.74v.83Zm0,1.52.22,0a.54.54,0,0,0,.19-.08.38.38,0,0,0,.13-.14.49.49,0,0,0,0-.23.46.46,0,0,0-.15-.39.66.66,0,0,0-.41-.12h-.85v1Z"/>
          <path class="cls-5" d="M97.13,14.82a1.79,1.79,0,0,1,.34-.6,1.58,1.58,0,0,1,.55-.4,2,2,0,0,1,1.48,0,1.58,1.58,0,0,1,.55.4,1.79,1.79,0,0,1,.35.6,2.23,2.23,0,0,1,.12.74,2.15,2.15,0,0,1-.12.73,1.74,1.74,0,0,1-.35.59,1.58,1.58,0,0,1-.55.39,2,2,0,0,1-1.48,0,1.58,1.58,0,0,1-.55-.39,1.74,1.74,0,0,1-.34-.59,2.15,2.15,0,0,1-.12-.73A2.23,2.23,0,0,1,97.13,14.82ZM97.85,16a1.19,1.19,0,0,0,.17.38.85.85,0,0,0,.3.27,1,1,0,0,0,.9,0,.85.85,0,0,0,.3-.27,1.17,1.17,0,0,0,.17-.38,1.81,1.81,0,0,0,.05-.44,2,2,0,0,0-.05-.46,1.2,1.2,0,0,0-.17-.39.85.85,0,0,0-.3-.27,1,1,0,0,0-.9,0,.85.85,0,0,0-.3.27,1.21,1.21,0,0,0-.17.39,2,2,0,0,0-.05.46A1.83,1.83,0,0,0,97.85,16Z"/>
          <path class="cls-5" d="M103.68,17.06a2,2,0,0,1-2.24,0A1.36,1.36,0,0,1,101,16V13.77h.79V16a1.58,1.58,0,0,0,0,.29.55.55,0,0,0,.33.42.91.91,0,0,0,.38.07.74.74,0,0,0,.58-.19.89.89,0,0,0,.16-.59V13.77h.79V16A1.35,1.35,0,0,1,103.68,17.06Z"/>
          <path class="cls-5" d="M104.48,14.42v-.66h2.93v.66h-1.07v2.91h-.79V14.42Z"/>
        </g>
        <g>
          <path class="cls-5" d="M161.67,147l.72,1.93h-.44l-.15-.43h-.72l-.15.43h-.43l.73-1.93Zm0,1.19-.24-.71h0l-.25.71Z"/>
          <path class="cls-5" d="M163.39,147a1,1,0,0,1,.35.06.75.75,0,0,1,.28.18.82.82,0,0,1,.18.3,1.2,1.2,0,0,1,.07.42,1.34,1.34,0,0,1-.05.39.86.86,0,0,1-.16.31.78.78,0,0,1-.27.2.93.93,0,0,1-.39.07h-.83V147Zm0,1.58a.54.54,0,0,0,.18,0,.39.39,0,0,0,.15-.1.5.5,0,0,0,.11-.18.8.8,0,0,0,0-.27,1.15,1.15,0,0,0,0-.26.53.53,0,0,0-.09-.2.41.41,0,0,0-.17-.13.69.69,0,0,0-.26,0H163v1.22Z"/>
          <path class="cls-5" d="M165.16,147l.45,1.33h0L166,147h.6v1.93h-.4v-1.37h0l-.47,1.37h-.33l-.47-1.36h0v1.36h-.4V147Z"/>
          <path class="cls-5" d="M167.44,147v1.93H167V147Z"/>
          <path class="cls-5" d="M168.24,147l.81,1.3h0V147h.4v1.93H169l-.8-1.29h0v1.29h-.4V147Z"/>
          <path class="cls-5" d="M170.25,147v1.93h-.42V147Z"/>
          <path class="cls-5" d="M170.95,148.42a.3.3,0,0,0,.09.11.4.4,0,0,0,.14.06l.16,0h.12l.12,0a.27.27,0,0,0,.1-.07.19.19,0,0,0,0-.12.17.17,0,0,0,0-.13.39.39,0,0,0-.13-.08l-.18-.06-.21-.05-.21-.07a.73.73,0,0,1-.18-.1.48.48,0,0,1-.13-.16.47.47,0,0,1-.05-.23.5.5,0,0,1,.06-.26.58.58,0,0,1,.17-.18.74.74,0,0,1,.23-.11,1,1,0,0,1,.26,0,1.23,1.23,0,0,1,.29,0,.73.73,0,0,1,.25.11.55.55,0,0,1,.17.19.59.59,0,0,1,.06.29h-.41a.33.33,0,0,0,0-.14.24.24,0,0,0-.08-.09l-.12,0h-.25l-.09,0-.07.07a.18.18,0,0,0,0,.1.17.17,0,0,0,0,.09.19.19,0,0,0,.09.07l.18.06.29.08.15,0a.72.72,0,0,1,.19.09.57.57,0,0,1,.16.17.47.47,0,0,1,.07.27.58.58,0,0,1-.05.25.53.53,0,0,1-.15.2.72.72,0,0,1-.25.13,1.19,1.19,0,0,1-.35,0,1.21,1.21,0,0,1-.31,0,.77.77,0,0,1-.27-.12.6.6,0,0,1-.18-.21.64.64,0,0,1-.06-.31h.41A.35.35,0,0,0,170.95,148.42Z"/>
          <path class="cls-5" d="M172.23,147.32V147h1.58v.36h-.58v1.58h-.43v-1.58Z"/>
          <path class="cls-5" d="M175.07,147a.62.62,0,0,1,.23,0,.54.54,0,0,1,.18.11.5.5,0,0,1,.11.17.54.54,0,0,1,0,.21.58.58,0,0,1-.07.29.45.45,0,0,1-.23.19h0a.33.33,0,0,1,.13.07.37.37,0,0,1,.08.11.5.5,0,0,1,0,.13,1.25,1.25,0,0,1,0,.15v.11s0,.08,0,.13a.87.87,0,0,0,0,.12.29.29,0,0,0,0,.1h-.43a.75.75,0,0,1,0-.22c0-.08,0-.17,0-.24a.39.39,0,0,0-.09-.22.32.32,0,0,0-.23-.07h-.42v.76H174V147Zm-.15.87a.32.32,0,0,0,.22-.06.27.27,0,0,0,.07-.21.26.26,0,0,0-.07-.2.33.33,0,0,0-.22-.06h-.47v.54Z"/>
          <path class="cls-5" d="M176.95,147l.72,1.93h-.44l-.15-.43h-.72l-.15.43h-.43l.73-1.93Zm0,1.19-.24-.71h0l-.25.71Z"/>
          <path class="cls-5" d="M177.44,147.32V147H179v.36h-.58v1.58H178v-1.58Z"/>
          <path class="cls-5" d="M179.67,147v1.93h-.42V147Z"/>
          <path class="cls-5" d="M180,147.53a1,1,0,0,1,.19-.32.86.86,0,0,1,.3-.22,1.06,1.06,0,0,1,.8,0,.86.86,0,0,1,.3.22,1,1,0,0,1,.19.32,1.21,1.21,0,0,1,.06.4,1.16,1.16,0,0,1-.06.39.94.94,0,0,1-.19.32.87.87,0,0,1-.3.21,1.08,1.08,0,0,1-.8,0,.87.87,0,0,1-.3-.21.94.94,0,0,1-.19-.32,1.16,1.16,0,0,1-.06-.39A1.21,1.21,0,0,1,180,147.53Zm.39.64a.64.64,0,0,0,.09.21.47.47,0,0,0,.16.15.56.56,0,0,0,.49,0,.47.47,0,0,0,.16-.15.64.64,0,0,0,.09-.21,1,1,0,0,0,0-.24,1.05,1.05,0,0,0,0-.25.65.65,0,0,0-.09-.21.46.46,0,0,0-.16-.15.56.56,0,0,0-.49,0,.46.46,0,0,0-.16.15.65.65,0,0,0-.09.21,1.05,1.05,0,0,0,0,.25A1,1,0,0,0,180.41,148.17Z"/>
          <path class="cls-5" d="M182.57,147l.81,1.3h0V147h.4v1.93h-.42l-.8-1.29h0v1.29h-.4V147Z"/>
        </g>
        <g>
          <path class="cls-5" d="M19.43,148a.81.81,0,0,1,.31.05.58.58,0,0,1,.21.14.54.54,0,0,1,.12.2.74.74,0,0,1,0,.46.53.53,0,0,1-.12.2.58.58,0,0,1-.21.14.81.81,0,0,1-.31.05H19V150h-.42V148Zm-.12.91h.14l.12,0a.22.22,0,0,0,.08-.09.37.37,0,0,0,0-.3.23.23,0,0,0-.08-.09l-.12,0H19v.58Z"/>
          <path class="cls-5" d="M21.79,149.81a1.06,1.06,0,0,1-1.21,0,.74.74,0,0,1-.22-.58V148h.42v1.2a.85.85,0,0,0,0,.15.31.31,0,0,0,.06.13.32.32,0,0,0,.12.09.49.49,0,0,0,.21,0,.4.4,0,0,0,.31-.1.49.49,0,0,0,.09-.32V148H22v1.2A.73.73,0,0,1,21.79,149.81Z"/>
          <path class="cls-5" d="M23.42,148a.62.62,0,0,1,.23,0,.54.54,0,0,1,.18.11.5.5,0,0,1,.11.17.54.54,0,0,1,0,.21.58.58,0,0,1-.07.29.45.45,0,0,1-.23.19h0a.33.33,0,0,1,.13.07.37.37,0,0,1,.08.11.5.5,0,0,1,0,.13,1.25,1.25,0,0,1,0,.15v.11s0,.08,0,.13a.87.87,0,0,0,0,.12.29.29,0,0,0,0,.1h-.43a.75.75,0,0,1,0-.22c0-.08,0-.17,0-.24a.39.39,0,0,0-.09-.22.32.32,0,0,0-.23-.07H22.8V150h-.42V148Zm-.15.87a.32.32,0,0,0,.22-.06.27.27,0,0,0,.07-.21.26.26,0,0,0-.07-.2.33.33,0,0,0-.22-.06H22.8v.54Z"/>
          <path class="cls-5" d="M25.57,148.54a.42.42,0,0,0-.09-.11l-.13-.07-.15,0a.49.49,0,0,0-.24.06.46.46,0,0,0-.16.15.65.65,0,0,0-.09.21,1.05,1.05,0,0,0,0,.25,1,1,0,0,0,0,.24.64.64,0,0,0,.09.21.47.47,0,0,0,.16.15.49.49,0,0,0,.24.06.39.39,0,0,0,.3-.12.55.55,0,0,0,.13-.31H26a1,1,0,0,1-.08.33.77.77,0,0,1-.18.25.75.75,0,0,1-.26.16,1,1,0,0,1-.33.05,1,1,0,0,1-.4-.08.87.87,0,0,1-.3-.21.94.94,0,0,1-.19-.32,1.16,1.16,0,0,1-.06-.39,1.21,1.21,0,0,1,.06-.4,1,1,0,0,1,.19-.32.86.86,0,0,1,.3-.22,1,1,0,0,1,.7,0,.82.82,0,0,1,.25.13.72.72,0,0,1,.19.22.78.78,0,0,1,.09.3h-.41A.35.35,0,0,0,25.57,148.54Z"/>
          <path class="cls-5" d="M26.76,148v.74h.78V148H28V150h-.42v-.83h-.78V150h-.42V148Z"/>
          <path class="cls-5" d="M29.3,148,30,150h-.44l-.15-.43h-.72l-.15.43h-.43l.73-1.93Zm0,1.19-.24-.71h0l-.25.71Z"/>
          <path class="cls-5" d="M30.52,149.48a.3.3,0,0,0,.09.11.4.4,0,0,0,.14.06l.16,0H31l.12,0a.27.27,0,0,0,.1-.07.19.19,0,0,0,0-.12.17.17,0,0,0,0-.13.39.39,0,0,0-.13-.08l-.18-.06-.21-.05L30.5,149a.73.73,0,0,1-.18-.1.48.48,0,0,1-.13-.16.47.47,0,0,1-.05-.23.5.5,0,0,1,.06-.26.58.58,0,0,1,.17-.18.74.74,0,0,1,.23-.11,1,1,0,0,1,.26,0,1.23,1.23,0,0,1,.29,0,.73.73,0,0,1,.25.11.55.55,0,0,1,.17.19.59.59,0,0,1,.06.29h-.41a.33.33,0,0,0,0-.14.24.24,0,0,0-.08-.09l-.12,0h-.25l-.09,0-.07.07a.18.18,0,0,0,0,.1.17.17,0,0,0,0,.09.19.19,0,0,0,.09.07l.18.06.29.08.15,0a.72.72,0,0,1,.19.09.57.57,0,0,1,.16.17.47.47,0,0,1,.07.27.58.58,0,0,1-.05.25.53.53,0,0,1-.15.2.72.72,0,0,1-.25.13,1.19,1.19,0,0,1-.35,0,1.21,1.21,0,0,1-.31,0,.77.77,0,0,1-.27-.12.6.6,0,0,1-.18-.21.64.64,0,0,1-.06-.31h.41A.35.35,0,0,0,30.52,149.48Z"/>
          <path class="cls-5" d="M33.4,148v.36h-1v.41h.94v.33h-.94v.47h1V150H31.95V148Z"/>
        </g>
        <g>
          <path class="cls-5" d="M93.56,418.83a.81.81,0,0,1,.31.05.58.58,0,0,1,.21.14.54.54,0,0,1,.12.2.74.74,0,0,1,0,.46.53.53,0,0,1-.12.2.58.58,0,0,1-.21.14.81.81,0,0,1-.31.05h-.45v.69h-.42v-1.93Zm-.12.91h.14l.12,0a.22.22,0,0,0,.08-.09.3.3,0,0,0,0-.15.31.31,0,0,0,0-.15.23.23,0,0,0-.08-.09l-.12,0h-.47v.58Z"/>
          <path class="cls-5" d="M95.91,420.61a1.06,1.06,0,0,1-1.21,0,.74.74,0,0,1-.22-.58v-1.2h.42V420a.86.86,0,0,0,0,.15.3.3,0,0,0,.18.23.49.49,0,0,0,.21,0,.4.4,0,0,0,.31-.1.49.49,0,0,0,.09-.32v-1.2h.42V420A.73.73,0,0,1,95.91,420.61Z"/>
          <path class="cls-5" d="M97.54,418.83a.63.63,0,0,1,.23,0A.54.54,0,0,1,98,419a.51.51,0,0,1,.11.17.54.54,0,0,1,0,.21.58.58,0,0,1-.07.29.45.45,0,0,1-.23.19h0a.32.32,0,0,1,.13.07A.35.35,0,0,1,98,420a.49.49,0,0,1,0,.13,1.26,1.26,0,0,1,0,.15v.11s0,.08,0,.13a.87.87,0,0,0,0,.12.28.28,0,0,0,0,.1h-.43a.75.75,0,0,1,0-.22c0-.08,0-.17,0-.24a.39.39,0,0,0-.09-.22.32.32,0,0,0-.23-.07h-.42v.75H96.5v-1.93Zm-.15.87a.32.32,0,0,0,.22-.06.27.27,0,0,0,.07-.21.26.26,0,0,0-.07-.21.33.33,0,0,0-.22-.06h-.47v.54Z"/>
          <path class="cls-5" d="M99.69,419.34a.42.42,0,0,0-.09-.11.43.43,0,0,0-.13-.07l-.15,0a.49.49,0,0,0-.24.06.46.46,0,0,0-.16.15.66.66,0,0,0-.09.21,1,1,0,0,0,0,.25,1,1,0,0,0,0,.24.65.65,0,0,0,.09.21.47.47,0,0,0,.16.15.49.49,0,0,0,.24.05.39.39,0,0,0,.3-.12.56.56,0,0,0,.13-.31h.41a1,1,0,0,1-.08.33.77.77,0,0,1-.18.25.75.75,0,0,1-.26.16,1,1,0,0,1-.33.05,1,1,0,0,1-.4-.08.87.87,0,0,1-.3-.21.93.93,0,0,1-.19-.32,1.16,1.16,0,0,1-.06-.39,1.21,1.21,0,0,1,.06-.4,1,1,0,0,1,.19-.32.87.87,0,0,1,.3-.22,1,1,0,0,1,.7,0,.83.83,0,0,1,.25.13.72.72,0,0,1,.19.22.77.77,0,0,1,.09.3h-.41A.35.35,0,0,0,99.69,419.34Z"/>
          <path class="cls-5" d="M100.88,418.83v.74h.78v-.74h.42v1.93h-.42v-.83h-.78v.83h-.42v-1.93Z"/>
          <path class="cls-5" d="M103.43,418.83l.72,1.93h-.44l-.15-.43h-.72l-.15.43h-.43l.73-1.93Zm0,1.19-.24-.71h0L103,420Z"/>
          <path class="cls-5" d="M104.64,420.28a.3.3,0,0,0,.09.11.4.4,0,0,0,.14.06l.16,0h.12l.12,0a.26.26,0,0,0,.1-.07.19.19,0,0,0,0-.12.17.17,0,0,0,0-.13.4.4,0,0,0-.13-.08L105,420l-.21-.05-.21-.07a.74.74,0,0,1-.18-.1.48.48,0,0,1-.13-.16.47.47,0,0,1-.05-.23.51.51,0,0,1,.06-.26.58.58,0,0,1,.17-.18.73.73,0,0,1,.23-.11,1,1,0,0,1,.26,0,1.23,1.23,0,0,1,.29,0,.72.72,0,0,1,.25.11.55.55,0,0,1,.17.19.6.6,0,0,1,.06.29h-.41a.33.33,0,0,0,0-.14.24.24,0,0,0-.08-.09l-.12,0h-.25l-.09,0-.07.07a.18.18,0,0,0,0,.1.17.17,0,0,0,0,.09.2.2,0,0,0,.09.07l.18.06.29.08.15,0a.75.75,0,0,1,.19.09.57.57,0,0,1,.16.17.47.47,0,0,1,.07.27.59.59,0,0,1-.05.25.54.54,0,0,1-.15.2.73.73,0,0,1-.25.13,1.17,1.17,0,0,1-.35,0,1.21,1.21,0,0,1-.31,0,.75.75,0,0,1-.27-.12.6.6,0,0,1-.18-.21.64.64,0,0,1-.06-.31h.41A.35.35,0,0,0,104.64,420.28Z"/>
          <path class="cls-5" d="M107.52,418.83v.36h-1v.41h.94v.33h-.94v.47h1v.36h-1.47v-1.93Z"/>
        </g>
        <g>
          <path class="cls-5" d="M165.81,418.83a.81.81,0,0,1,.31.05.58.58,0,0,1,.21.14.54.54,0,0,1,.12.2.74.74,0,0,1,0,.46.53.53,0,0,1-.12.2.58.58,0,0,1-.21.14.81.81,0,0,1-.31.05h-.45v.69h-.42v-1.93Zm-.12.91h.14l.12,0a.22.22,0,0,0,.08-.09.3.3,0,0,0,0-.15.31.31,0,0,0,0-.15.23.23,0,0,0-.08-.09l-.12,0h-.47v.58Z"/>
          <path class="cls-5" d="M168.16,420.61a1.06,1.06,0,0,1-1.21,0,.74.74,0,0,1-.22-.58v-1.2h.42V420a.86.86,0,0,0,0,.15.3.3,0,0,0,.18.23.49.49,0,0,0,.21,0,.4.4,0,0,0,.31-.1A.49.49,0,0,0,168,420v-1.2h.42V420A.73.73,0,0,1,168.16,420.61Z"/>
          <path class="cls-5" d="M169.79,418.83a.63.63,0,0,1,.23,0,.54.54,0,0,1,.18.12.51.51,0,0,1,.11.17.54.54,0,0,1,0,.21.58.58,0,0,1-.07.29.45.45,0,0,1-.23.19h0a.32.32,0,0,1,.13.07.35.35,0,0,1,.08.11.49.49,0,0,1,0,.13,1.26,1.26,0,0,1,0,.15v.11s0,.08,0,.13a.87.87,0,0,0,0,.12.28.28,0,0,0,0,.1H170a.75.75,0,0,1,0-.22c0-.08,0-.17,0-.24a.39.39,0,0,0-.09-.22.32.32,0,0,0-.23-.07h-.42v.75h-.42v-1.93Zm-.15.87a.32.32,0,0,0,.22-.06.27.27,0,0,0,.07-.21.26.26,0,0,0-.07-.21.33.33,0,0,0-.22-.06h-.47v.54Z"/>
          <path class="cls-5" d="M171.94,419.34a.42.42,0,0,0-.09-.11.43.43,0,0,0-.13-.07l-.15,0a.49.49,0,0,0-.24.06.46.46,0,0,0-.16.15.66.66,0,0,0-.09.21,1,1,0,0,0,0,.25,1,1,0,0,0,0,.24.65.65,0,0,0,.09.21.47.47,0,0,0,.16.15.49.49,0,0,0,.24.05.39.39,0,0,0,.3-.12A.56.56,0,0,0,172,420h.41a1,1,0,0,1-.08.33.77.77,0,0,1-.18.25.75.75,0,0,1-.26.16,1,1,0,0,1-.33.05,1,1,0,0,1-.4-.08.87.87,0,0,1-.3-.21.93.93,0,0,1-.19-.32,1.16,1.16,0,0,1-.06-.39,1.21,1.21,0,0,1,.06-.4,1,1,0,0,1,.19-.32.87.87,0,0,1,.3-.22,1,1,0,0,1,.7,0,.83.83,0,0,1,.25.13.72.72,0,0,1,.19.22.77.77,0,0,1,.09.3H172A.35.35,0,0,0,171.94,419.34Z"/>
          <path class="cls-5" d="M173.13,418.83v.74h.78v-.74h.42v1.93h-.42v-.83h-.78v.83h-.42v-1.93Z"/>
          <path class="cls-5" d="M175.68,418.83l.72,1.93H176l-.15-.43h-.72l-.15.43h-.43l.73-1.93Zm0,1.19-.24-.71h0l-.25.71Z"/>
          <path class="cls-5" d="M176.89,420.28a.3.3,0,0,0,.09.11.4.4,0,0,0,.14.06l.16,0h.12l.12,0a.26.26,0,0,0,.1-.07.19.19,0,0,0,0-.12.17.17,0,0,0,0-.13.4.4,0,0,0-.13-.08l-.18-.06-.21-.05-.21-.07a.74.74,0,0,1-.18-.1.48.48,0,0,1-.13-.16.47.47,0,0,1-.05-.23.51.51,0,0,1,.06-.26.58.58,0,0,1,.17-.18.73.73,0,0,1,.23-.11,1,1,0,0,1,.26,0,1.23,1.23,0,0,1,.29,0,.72.72,0,0,1,.25.11.55.55,0,0,1,.17.19.6.6,0,0,1,.06.29h-.41a.33.33,0,0,0,0-.14.24.24,0,0,0-.08-.09l-.12,0h-.25l-.09,0-.07.07a.18.18,0,0,0,0,.1.17.17,0,0,0,0,.09.2.2,0,0,0,.09.07l.18.06.29.08.15,0a.75.75,0,0,1,.19.09.57.57,0,0,1,.16.17.47.47,0,0,1,.07.27.59.59,0,0,1-.05.25.54.54,0,0,1-.15.2.73.73,0,0,1-.25.13,1.17,1.17,0,0,1-.35,0,1.21,1.21,0,0,1-.31,0,.75.75,0,0,1-.27-.12.6.6,0,0,1-.18-.21.64.64,0,0,1-.06-.31h.41A.35.35,0,0,0,176.89,420.28Z"/>
          <path class="cls-5" d="M179.77,418.83v.36h-1v.41h.94v.33h-.94v.47h1v.36h-1.47v-1.93Z"/>
        </g>
      </g>
    </g>
  </g>
</svg>
