<svg xmlns="http://www.w3.org/2000/svg" viewBox="0 0 182.44 48.16"><defs><style>.cls-1{fill:#fff;}</style></defs><title>tft-logo</title><g id="Layer_2" data-name="Layer 2"><g id="Layer_3" data-name="Layer 3"><polygon class="cls-1" points="39.04 16.36 28.68 16.36 28.54 16.36 28.5 16.5 28.2 17.63 28.14 17.86 28.38 17.86 32.81 17.87 32.81 32.66 32.81 32.84 32.99 32.84 34.25 32.84 34.44 32.84 34.44 32.66 34.44 17.87 39.04 17.87 39.22 17.87 39.22 17.69 39.22 16.54 39.22 16.36 39.04 16.36"/><path class="cls-1" d="M24.34,16.36l.18-3.55c.14-2.51,1.5-3.9,4.06-4.13.25,0,.48,0,.7,0a7.72,7.72,0,0,1,3.32.82l.16.07.08-.15.55-1.06.09-.17-.17-.08a9.3,9.3,0,0,0-4-1c-.24,0-.49,0-.74,0-3.41.31-5.54,2.42-5.7,5.64l-.17,3.61H19.86v1.51h2.73V32.19c-.25,4.64-1.51,5.87-4.31,7.56l-.15.09.08.15.54,1,.09.17.17-.1c3.49-2,5-3.48,5.29-8.91V17.87h2.33l0-.14.26-1.14,0-.22h-2.6Z"/><polygon class="cls-1" points="18.43 17.87 18.43 17.69 18.43 16.55 18.43 16.36 18.25 16.36 8.21 16.36 8.02 16.36 8.02 16.54 8.02 17.69 8.02 17.87 8.21 17.87 12.81 17.87 12.81 32.66 12.81 32.84 12.99 32.84 14.25 32.84 14.44 32.84 14.44 32.66 14.44 17.87 18.25 17.87 18.43 17.87"/><path class="cls-1" d="M23.69,0C11.92,0,0,8.27,0,24.08S11.92,48.16,23.69,48.16s23.69-8.27,23.69-24.08S35.46,0,23.69,0Zm0,46.66c-11,0-22.19-7.76-22.19-22.58S12.66,1.5,23.69,1.5,45.88,9.26,45.88,24.08,34.71,46.66,23.69,46.66Z"/><path class="cls-1" d="M63.51,21.92a4.64,4.64,0,0,1-1.68.31,2.15,2.15,0,0,1-1.94-.94,4.77,4.77,0,0,1-.46-2.73V14.37H58.08V12.89h1.35V10.15h1.85v2.73h2.19v1.48H61.28v4.14a3.6,3.6,0,0,0,.23,1.68,1,1,0,0,0,.94.46,2.23,2.23,0,0,0,.94-.21Z"/><path class="cls-1" d="M73.1,22H71.26V16.83c0-1.31-.21-2.62-1.89-2.62S67,15.66,67,17.49V22H65.15V8.73H67v5.58h0a3.12,3.12,0,0,1,2.81-1.62c2.64,0,3.27,1.69,3.27,3.87Z"/><path class="cls-1" d="M83.91,17.87h-7a2.82,2.82,0,0,0,2.95,2.91,5.06,5.06,0,0,0,3-1.06l.77,1.06a5.37,5.37,0,0,1-4,1.44A4.43,4.43,0,0,1,75,17.43a4.54,4.54,0,0,1,4.64-4.74A4.18,4.18,0,0,1,84,17.06,7.93,7.93,0,0,1,83.91,17.87Zm-1.69-1.23A2.64,2.64,0,0,0,79.58,14a2.69,2.69,0,0,0-2.7,2.62Zm-.15-7.91-2.12,2.79H78.54l1.71-2.79Z"/><path class="cls-1" d="M92.91,22H91.12l0-1.16a3.77,3.77,0,0,1-2.91,1.37A2.91,2.91,0,0,1,85,19.39c0-1.79,1.46-2.7,3.58-2.79l2.44-.1v-.37a2,2,0,0,0-2.27-2.08,5.61,5.61,0,0,0-2.75.79l-.56-1.23a7,7,0,0,1,3.43-.92,4,4,0,0,1,3,1,3.79,3.79,0,0,1,1,3ZM91.56,11.52H90.21L89,9.59l-1.16,1.93H86.54l1.75-2.79h1.52Zm-.48,6.1-2.14.13c-1.48.08-2.08.71-2.08,1.58s.67,1.58,1.89,1.58a2.87,2.87,0,0,0,2.33-1.33Z"/><path class="cls-1" d="M99.73,21.92a4.64,4.64,0,0,1-1.68.31,2.15,2.15,0,0,1-1.94-.94,4.77,4.77,0,0,1-.46-2.73V14.37H94.3V12.89h1.35V10.15H97.5v2.73h2.19v1.48H97.5v4.14a3.6,3.6,0,0,0,.23,1.68,1,1,0,0,0,.94.46,2.23,2.23,0,0,0,.94-.21Z"/><path class="cls-1" d="M106.26,14.56h-.08a2.42,2.42,0,0,0-1-.19,1.92,1.92,0,0,0-1.5.77,4.05,4.05,0,0,0-.56,2.31V22h-1.85V12.87h1.85l0,1.41h.06a2.39,2.39,0,0,1,2.25-1.58,2.58,2.58,0,0,1,1,.15Z"/><path class="cls-1" d="M115.74,17.87h-7a2.82,2.82,0,0,0,2.95,2.91,5.06,5.06,0,0,0,3-1.06l.77,1.06a5.37,5.37,0,0,1-4,1.44,4.43,4.43,0,0,1-4.58-4.79,4.54,4.54,0,0,1,4.64-4.74,4.18,4.18,0,0,1,4.33,4.37A7.93,7.93,0,0,1,115.74,17.87ZM114,16.64A2.64,2.64,0,0,0,111.4,14a2.69,2.69,0,0,0-2.7,2.62Z"/><path class="cls-1" d="M125.7,10.09a3.78,3.78,0,0,0-1-.17c-1.21,0-1.41.9-1.41,1.94v1h2.18v1.48h-2.18V22h-1.83V14.37h-1.31V12.89h1.31V12A3.85,3.85,0,0,1,122,9.52a2.77,2.77,0,0,1,2.19-1,4.59,4.59,0,0,1,1.58.21Z"/><path class="cls-1" d="M131.73,14.56h-.08a2.42,2.42,0,0,0-1-.19,1.92,1.92,0,0,0-1.5.77,4.05,4.05,0,0,0-.56,2.31V22h-1.85V12.87h1.85l0,1.41h.06a2.39,2.39,0,0,1,2.25-1.58,2.58,2.58,0,0,1,1,.15Z"/><path class="cls-1" d="M140.3,22h-1.79l0-1.16a3.77,3.77,0,0,1-2.91,1.37,2.91,2.91,0,0,1-3.16-2.83c0-1.79,1.46-2.7,3.58-2.79l2.44-.1v-.37a2,2,0,0,0-2.27-2.08,5.61,5.61,0,0,0-2.75.79l-.56-1.23a7,7,0,0,1,3.43-.92,4,4,0,0,1,3,1,3.79,3.79,0,0,1,1,3Zm-1.83-4.39-2.14.13c-1.48.08-2.08.71-2.08,1.58s.67,1.58,1.89,1.58a2.87,2.87,0,0,0,2.33-1.33Z"/><path class="cls-1" d="M150.63,22h-1.85v-5.1c0-1.54-.27-2.7-1.91-2.7s-2.35,1.44-2.35,3.2V22h-1.85V12.87h1.85l0,1.44h.06a3.09,3.09,0,0,1,2.79-1.62c2.6,0,3.27,1.71,3.27,3.91Z"/><path class="cls-1" d="M160.76,20.84a4.38,4.38,0,0,1-3,1.35l-1.43,2.62h-1.81l1.83-2.64a4.56,4.56,0,0,1-3.91-4.72,4.61,4.61,0,0,1,4.68-4.76A4.45,4.45,0,0,1,160.7,14L160,15.35a3.61,3.61,0,0,0-2.73-1.12,3,3,0,0,0-3,3.16,3,3,0,0,0,3,3.25,3.8,3.8,0,0,0,2.77-1.16Z"/><path class="cls-1" d="M169.35,22h-1.79l0-1.16a3.77,3.77,0,0,1-2.91,1.37,2.91,2.91,0,0,1-3.16-2.83c0-1.79,1.46-2.7,3.58-2.79l2.44-.1v-.37a2,2,0,0,0-2.27-2.08,5.61,5.61,0,0,0-2.75.79l-.56-1.23a7,7,0,0,1,3.43-.92,4,4,0,0,1,3,1,3.79,3.79,0,0,1,1,3Zm-1.83-4.39-2.14.13c-1.48.08-2.08.71-2.08,1.58s.67,1.58,1.89,1.58a2.87,2.87,0,0,0,2.33-1.33Z"/><path class="cls-1" d="M172.73,11a1.14,1.14,0,1,1,1.19-1.14A1.14,1.14,0,0,1,172.73,11Zm.93,11H171.8V12.87h1.85Z"/><path class="cls-1" d="M181.49,21.42a3.9,3.9,0,0,1-2.54.81,4.38,4.38,0,0,1-3.56-1.64l.89-1.08a3.75,3.75,0,0,0,2.7,1.31c.85,0,1.75-.31,1.75-1.31s-1.45-1.31-2.06-1.52a6.8,6.8,0,0,1-1.25-.48A2.36,2.36,0,0,1,176,15.31c0-1.69,1.46-2.62,3.08-2.62a4,4,0,0,1,3.12,1.19L181.39,15a3.35,3.35,0,0,0-2.31-1c-.89,0-1.46.38-1.46,1.14s.89,1.08,1.79,1.37c.5.17.85.29,1.23.44a3.5,3.5,0,0,1,1.06.65,2.26,2.26,0,0,1,.73,1.69A2.6,2.6,0,0,1,181.49,21.42Z"/><path class="cls-1" d="M63,29a3.84,3.84,0,0,1,3.35,1.83v-6h1V38.07h-1V36.41A3.68,3.68,0,0,1,63,38.26a4.36,4.36,0,0,1-4.43-4.66A4.31,4.31,0,0,1,63,29Zm0,8.38c2.18,0,3.37-1.69,3.37-3.76S65.17,29.85,63,29.85s-3.37,1.68-3.37,3.75S60.84,37.36,63,37.36Z"/><path class="cls-1" d="M78,33.83H70.7C70.8,36,72,37.36,74,37.36a4.56,4.56,0,0,0,3.14-1.16l.48.71a4.86,4.86,0,0,1-3.72,1.35c-2.6,0-4.28-1.93-4.28-4.66A4.38,4.38,0,0,1,74,29a4,4,0,0,1,4,4.18A5.53,5.53,0,0,1,78,33.83ZM77,33a3.1,3.1,0,0,0-3.08-3.12A3.18,3.18,0,0,0,70.74,33Z"/><path class="cls-1" d="M87.65,38a2.8,2.8,0,0,1-1.35.29,1.75,1.75,0,0,1-1.69-1,5.82,5.82,0,0,1-.33-2.7V30.08H82.94v-.91h1.35V26.32h1v2.85h2.25v.91H85.28V35.2c0,1,.12,2.16,1.31,2.16a1.9,1.9,0,0,0,1-.25Z"/><path class="cls-1" d="M93.28,38.26a4.64,4.64,0,1,1,4.58-4.62A4.49,4.49,0,0,1,93.28,38.26Zm0-8.41a3.5,3.5,0,0,0-3.5,3.75,3.52,3.52,0,1,0,7,0A3.5,3.5,0,0,0,93.28,29.85Z"/><path class="cls-1" d="M104.22,30.1a2.6,2.6,0,0,0-1-.15,2,2,0,0,0-1.54.81,4.17,4.17,0,0,0-.63,2.5v4.81h-1V29.13h1v1.68A2.35,2.35,0,0,1,103.35,29a3.21,3.21,0,0,1,1,.13Z"/><path class="cls-1" d="M109.75,38.26a4.64,4.64,0,1,1,4.58-4.62A4.49,4.49,0,0,1,109.75,38.26Zm0-8.41a3.5,3.5,0,0,0-3.5,3.75,3.52,3.52,0,1,0,7,0A3.5,3.5,0,0,0,109.75,29.85Z"/><path class="cls-1" d="M123.6,38.07h-1v-5.3c0-1.44-.25-2.93-2.18-2.93s-2.85,1.68-2.85,3.79v4.43h-1V29.13h1v1.66A3.12,3.12,0,0,1,120.44,29c2.56,0,3.16,1.64,3.16,3.75Z"/><path class="cls-1" d="M130.06,38a2.8,2.8,0,0,1-1.35.29,1.75,1.75,0,0,1-1.69-1,5.82,5.82,0,0,1-.33-2.7V30.08h-1.35v-.91h1.35V26.32h1v2.85H130v.91h-2.27V35.2c0,1,.12,2.16,1.31,2.16a1.91,1.91,0,0,0,1-.25Z"/><path class="cls-1" d="M135.68,38.26a4.64,4.64,0,1,1,4.58-4.62A4.49,4.49,0,0,1,135.68,38.26Zm0-8.41a3.5,3.5,0,0,0-3.5,3.75,3.52,3.52,0,1,0,7,0A3.5,3.5,0,0,0,135.68,29.85Z"/></g></g></svg>